<?xml version="1.0" encoding="UTF-8"?>
<svg id="Layer_2" data-name="Layer 2" xmlns="http://www.w3.org/2000/svg" viewBox="0 0 159.99 203.83">
  <defs>
    <style>
      .cls-1 {
        fill: #11292c;
      }

      .cls-1, .cls-2, .cls-3, .cls-4, .cls-5, .cls-6, .cls-7, .cls-8, .cls-9, .cls-10, .cls-11, .cls-12, .cls-13, .cls-14, .cls-15, .cls-16, .cls-17, .cls-18, .cls-19, .cls-20, .cls-21, .cls-22, .cls-23, .cls-24, .cls-25, .cls-26, .cls-27, .cls-28, .cls-29, .cls-30, .cls-31, .cls-32, .cls-33, .cls-34, .cls-35, .cls-36, .cls-37, .cls-38, .cls-39, .cls-40, .cls-41, .cls-42, .cls-43, .cls-44, .cls-45, .cls-46, .cls-47, .cls-48, .cls-49, .cls-50, .cls-51, .cls-52, .cls-53 {
        stroke-width: 0px;
      }

      .cls-2 {
        fill: #274d53;
      }

      .cls-3 {
        fill: #010001;
      }

      .cls-4 {
        fill: #4394a0;
      }

      .cls-5 {
        fill: #0e0f13;
      }

      .cls-6 {
        fill: #418e99;
      }

      .cls-7 {
        fill: #232936;
      }

      .cls-8 {
        fill: #323436;
      }

      .cls-9 {
        fill: #0d0505;
      }

      .cls-10 {
        fill: #22434c;
      }

      .cls-11 {
        fill: #232b41;
      }

      .cls-12 {
        fill: #030405;
      }

      .cls-13 {
        fill: #4495a1;
      }

      .cls-14 {
        fill: #060609;
      }

      .cls-15 {
        fill: #060606;
      }

      .cls-16 {
        fill: #020102;
      }

      .cls-17 {
        fill: #242c2e;
      }

      .cls-18 {
        fill: #31223c;
      }

      .cls-19 {
        fill: #1f2534;
      }

      .cls-20 {
        fill: #232a3f;
      }

      .cls-21 {
        fill: #020202;
      }

      .cls-22 {
        fill: #1f2433;
      }

      .cls-23 {
        fill: #131114;
      }

      .cls-24 {
        fill: #010202;
      }

      .cls-25 {
        fill: #272d3b;
      }

      .cls-26 {
        fill: #000;
      }

      .cls-27 {
        fill: #32223c;
      }

      .cls-28 {
        fill: #4496a2;
      }

      .cls-29 {
        fill: #354949;
      }

      .cls-30 {
        fill: #040304;
      }

      .cls-31 {
        fill: #010101;
      }

      .cls-32 {
        fill: #3b8590;
      }

      .cls-33 {
        fill: #040404;
      }

      .cls-34 {
        fill: #242a40;
      }

      .cls-35 {
        fill: #040505;
      }

      .cls-36 {
        fill: #13141a;
      }

      .cls-37 {
        fill: #35727d;
      }

      .cls-38 {
        fill: #080606;
      }

      .cls-39 {
        fill: #243e4a;
      }

      .cls-40 {
        fill: #020101;
      }

      .cls-41 {
        fill: #34727d;
      }

      .cls-42 {
        fill: #101015;
      }

      .cls-43 {
        fill: #0f0e12;
      }

      .cls-44 {
        fill: #0e0a0e;
      }

      .cls-45 {
        fill: #010102;
      }

      .cls-46 {
        fill: #f1df79;
      }

      .cls-47 {
        fill: #272d3a;
      }

      .cls-48 {
        fill: #0a080b;
      }

      .cls-49 {
        fill: #271f2b;
      }

      .cls-50 {
        fill: #262c3a;
      }

      .cls-51 {
        fill: #252b39;
      }

      .cls-52 {
        fill: #3e8692;
      }

      .cls-53 {
        fill: #050707;
      }
    </style>
  </defs>
  <g id="tree_Image" data-name="tree Image">
    <g>
      <path class="cls-26" d="M90.4,179.7c3.09,1.87,5.26,4.77,7.51,7.53.72.89,1.38,1.79,1.74,3.03,1.32,4.63,3.03,9.14,4.89,13.57.77-.01,1.55-.02,2.32-.03-.86-1.83-1.66-3.69-2.24-5.64-1.06-3.57-3.49-6.64-3.83-10.48-.03-.3-.21-.61-.4-.86-3.22-4.32-6.72-8.32-11.94-10.3-1.5-.57-2.88-1.33-4.26-2.15-2.21-1.3-3.46-3.34-4.18-5.63-.59-1.88-.88-3.86-1.54-5.73-1.46-4.2-1.83-8.69-3.39-12.85-1.25-3.36-3.72-5.82-7.02-7.07-2.27-.86-4.8-1.04-7.21-1.53-.64-.13-1.26-.11-1.89.06-1.69.46-3.43.77-5.07,1.37-3.86,1.42-7.69,2.93-11.5,4.49-1.62.66-3.04.79-4.35-.61-.55-.59-1.33-.85-2.08-1.13-2.05-.75-4.06-.59-6.09.1-1.81.62-3.66.81-5.24-.47-1.6-1.3-3.02-2.77-4.12-4.59-1.48-2.44-3.09-4.83-5.06-6.92-1.24-1.31-1.34-1.34-2.79-.31-1.5,1.07-3.11,1.93-4.64,2.92-1.37.89-2.58.81-3.76-.05-1.08-.79-2.03-1.77-3.03-2.66-.1-.15-.25-.23-.43-.23-.18.02-.33.1-.43.25-.04,1.67,1.38,2.36,2.34,3.29,2.48,2.4,4.41,2.47,7.19.49.65-.47,1.22-.98,1.75-1.6,1.4-1.61,1.74-1.56,2.98.11,2.3,3.12,4.14,6.57,6.76,9.48,1.84,2.05,4.05,2.84,6.78,2.69,2.1-.12,4.07-.72,6.06-1.23.98-.25,1.68-.11,2.37.53.47.43.97.82,1.46,1.24,1.17,1.02,2.45,1.3,4,.89,1.86-.49,3.65-1.14,5.46-1.78,3.29-1.16,6.29-3.03,9.7-3.89,2.57-.65,5.1-1.34,7.67.02.41.22.92.24,1.39.33,2.89.53,4.71,2.59,6.21,4.79.9,1.32,1.32,3.02,1.67,4.67.59,2.71.82,5.52,1.86,8.1.86,2.14,1.36,4.37,1.81,6.6.7,3.44,2.55,5.8,5.64,7.48,2.31,1.26,4.72,2.33,6.95,3.68Z"/>
      <path class="cls-19" d="M19.47,66.16c.6-.45,1.18-.87,1.1-1.79-.06-.67-.15-1.42.4-2.01.57-.28.2-1.07.76-1.37.53-.4.91-.9.96-1.59.42-5.55,1.93-10.99,1.52-16.62-.28-3.82.88-7.61.33-11.45-.11-.75.24-1.39.68-1.99,4.17-5.76,8.84-11.09,13.53-16.42.64-.73,1.43-1.3,2.44-1.4,4.36-.44,8.71-.97,13.07-1.41.4-.04.79.09,1.14.29.84,1.37,0,2.91.43,4.32.06.83-.21,1.6-.6,2.28-1.57,2.78-.65,5.08,1.43,7.02,1.41,1.31,2.61,3.05,4.83,3.15,1.26.51,2.83.65,3.02,2.47-.16.87-.27,1.74.04,2.6.08.44.09.88.01,1.32-.41.99.08,2.01-.08,3.02,0,.01.23-.23.43-.17.81.38.88,1.14.98,1.89-.16.87.17,1.72.06,2.59-.37,3.16,1.19,5.78,2.35,8.52.69,1.71,2.1,2.74,3.5,3.82,3.15,2.44,6.64,4.39,9.61,7.09,4.91,4.47,8.37,10.02,11.71,15.63,2.45,4.1,4.88,8.23,7.15,12.43,3.6,6.65,7.06,13.38,10.41,20.17.56,1.14,1.06,2.33,2.11,3.15.17.13.31.28.45.45.27.42.4.89.52,1.37.02.14.04.28.07.41.15-.05.16-.26.33-.31.2,0,.38.05.53.18.41.61.4,1.38.77,2,.07.48.33.88.49,1.32.99,2.63.89,2.77-1.95,2.38.18,1.64.89,3.18.83,4.83-.6,2.92.87,5.31,1.99,7.78,2.94,4.28,7.01,7.34,11.18,10.27,2.66,1.87,5.78,3,8.29,5.11-.67,2.87-2.4,5.16-4.05,7.5-.43.6-1.14.92-1.92.71-2.76-.75-5.44-1.7-8-2.86.15,1.06.21,2.24-1.71,1.91-8.43-1.42-16.92-2.62-24.37-7.3-.34-.52-.29-1.07-.08-1.6.85-2.04.63-3.82-1.21-5.24-.27-.85-.29-1.7.03-2.54.58-.93,1.24-.31,1.85-.06,1.53.61,2.99,1.39,4.93,2.39-2.62-2.97-3.96-6.18-6.38-8.66-1.62-1.66-3.11-3.36-5.37-4.16-.43-.15-.83-.64-1.29-.33-.61.41-.21,1-.09,1.52.1.46.31.91.03,1.37-1.05.53-2.03-.02-3.01-.26-.79-.2-.73.27-.78.74-.57.49-.97,1.17-1.7,1.47-.96-.38-1.1-1.32-1.34-2.12-1.32-4.49-4.48-6.71-8.93-7.42-.79-.13-1.84.11-2.11-1.08.58-.79.88-1.62.69-2.64-.16-.85-.19-1.8,1.05-1.99,3.2,1.89,6.51,3.56,10.07,5.06-2.93-3.97-5.8-7.87-9.13-11.41-.33-.62-.66-1.24-.31-1.96.39-.29,1.18-.04.75-1.19-1.14-3.07-2.38-6.05-4.2-8.8-.58-.88-1.4-1.81-.8-3.06,1.18-.23,1.45.77,1.9,1.46,2.11,3.2,4.4,6.23,7.15,8.95,3.24,3.21,5.29,7.37,8.06,10.96,1.6,2.08,3.09,4.24,5.35,6.37-.21-2.26-.56-4.06-.79-5.88-.1-.77-.29-1.82.62-2.09.83-.24,1.08.77,1.35,1.39,1.66,3.77,4.05,7.04,6.88,10.01-1.63-1.73-3-3.65-4.14-5.74-.42-.77-.97-1.5-.58-2.45,1.88-2.12,1.7-5.32-.78-7.26-1.64-1.28-2.77-2.81-3.74-4.55-.62-1.11-1.61-1.73-2.64-2.34-4.21-6.48-8.88-12.65-12.87-19.28-.95-1.58-1.67-3.26-2.4-4.95-.32-.73-.71-1.56-1.71-1.34-.9.19-1.19.99-1.37,1.79-.16.71-.06,1.42.05,2.14.72,4.45,2.28,8.62,4.41,12.57.13.18.24.36.35.55.21.37.41.74.69,1.08.64.75,1.16,1.56,1.5,2.49.39,1.2,1.17,2.17,1.86,3.2.41.61,1.1,1.19.46,2.05-1.03.24-1.71-.39-2.21-1.1-3.81-5.4-7.71-10.76-9.98-17.18-.45,1.45.6,2.82.01,4.18-.13.23-.33.34-.6.34-.11-.06-.22-.12-.33-.18-.08-.1-.16-.2-.24-.29-4.22-12.01-4.9-24.16-1.36-36.46-2.7,10.81-3.14,17.52-1.89,25.8.35,2.3,1.46,4.38,1.63,6.7-2.42,1.16-1.87,3.09-1.32,5.04.48,1.69,1.25,3.26,1.96,4.85.22.5.48,1.14-.11,1.51-.57.35-1.06-.13-1.44-.51-1-1.01-1.75-2.26-2.89-3.16-1.14-.9-2.29-1.47-3.66-.46-1.33.11-1.94-.91-2.59-1.75-1.02-1.3-2.16-2.49-3.16-3.8-.78-1.02-1.72-1.38-2.76-.29-1.04,1.1-1.08,2.43-.9,3.81.16,1.29-.26,1.44-1.6,1.42-2.74-.04-5.44.28-7.27-2.37-.05-.08-.17-.1-.21-.1-3.86.42-4.48-2.76-5.77-5.2-.71-1.34-1.22-2.77-1.87-4.13-.34-.7-.67-1.61-1.65-1.46-1.05.16-1.21,1.15-1.35,2.02-.18,1.18,0,2.39-.19,3.57-.53,1.63-.12,3.14.57,4.62.91,1.95,2,3.81,2.8,5.81.17,1.03,1.22,1.94.43,3.1-.99.08-1.35-.69-1.78-1.35-3.03-4.59-5.62-9.43-7.83-14.47-.89-2.04-.57-4.22-.67-6.35-.1-2.41.69-4.87-.44-7.2-.31-.09-.61-.19-.86-.41-.39-1.09,1.03-1.91.46-3.03Z"/>
      <path class="cls-49" d="M99.26,186.82c1.48,2.68,2.45,5.84,3.47,8.85.95,2.78,2.12,5.47,3.33,8.14,2.48-.04,4.96-.07,7.45-.1.71-.4,1.61-.58,2.69-.45.67.08,1.34.15,2.02.23.77-.92,1.58-1.8,2.5-2.61-.9.82-1.71,1.7-2.47,2.62.46.05.92.11,1.38.16,7.46-.06,14.92-.04,22.37.19.29-.02.57-.05.86-.07-.02-.07-.03-.14-.05-.21-.69-2.38-1.69-4.64-2.6-6.95-.64-1.65-1.83-2.34-3.46-2.37.09,0,.18,0,.28,0,1.61.07,1.96-.69,1.69-2.07-.14-.71-.36-1.39-.55-2.08-1.44-5.23-3.2-10.37-4.68-15.59-.59-1.22-.17-2.3.41-3.39,2.37-4.45,5.34-8.5,8.55-12.35,1.97-2.36,3.19-4.88,3.14-8.03-.03-1.99.41-3.97.86-5.91.68-2.88,2.51-4.88,5.12-6.28,1.61-.86,3.46-1.85,3.07-4.08-.58-3.23-1.91-6.19-4.13-8.68-.33,0-.65.01-.98.02-3.9,1.04-6.37,3.72-7.32,7.44-1.27,4.97-2.62,9.79-5.48,14.16-2.42,3.69-3.67,8.17-7.64,10.77-.8.52-.89,1.5-1.09,2.38-.94-.47-1.6-.94-2.11-1.55-2.27-2.76-5.27-3.73-8.73-4.33-7.13-1.22-14.32-2.5-20.44-6.83-.46-.28-1.01-.1-1.48-.3-.71-.05-1.4-.23-2.1-.33-2.86,1.96-2.96,1.92-3.73-1.54-.03-.15-.04-.14-.04-.12,0-.02,0-.05,0-.11-.08-2.04-.77-3.24-3.28-1.94.3-.85.8-1.23.79-1.8-.09-.35-.32-.59-.62-.77-.69-.32-.79-.96-.84-1.6-.35-4.59-3.61-7.89-5.26-11.91-.3-.72-.97-1.27-1.58-1.78-3.99-3.34-8.79-3.62-13.39-2.49-3.44.84-6.92,2.5-9,5.86-.5,1.29-.44,2.77-1.2,3.99-.7-.35-1-.8-1.13-1.37-.31-1.41-.52-2.83-.61-4.27-.06-.9-.19-1.82-1.33-1.98-1.14-.15-1.78.52-2.2,1.48-.46,1.05-.66,2.18-.5,3.28.24,1.63.08,2.75-1.74,3.51-.89.37-1.37.87-2.17.03-.66-.69-1.13.1-1.66.33-6.68,4.76-13.58,1.99-17.96-2.27-2.33-2.27-3.66-5.17-4.98-8.08-1.1-2.44-2.34-3.13-4.7-2.16-6.24,2.55-11.35,6.61-15.32,12.07,2.18,3.72,4.67,4.47,8.26,2.52.91-.5,1.79-1.04,2.64-1.65,1.92-1.38,2.38-1.28,3.95.59,1.96,2.33,3.44,5,5.25,7.42,2.45,3.27,5.43,5.04,9.73,3.49,2.36-.85,4.76-.49,6.8,1.13,1.45,1.15,2.93,1.44,4.68.71,3.17-1.31,6.39-2.48,9.57-3.76,4.33-1.74,8.66-2.61,13.5-1.33,5.79,1.53,8.91,5.05,10,10.59,1,5.1,2.7,10.01,3.93,15.04.52,2.13,1.71,3.97,3.38,5.4,1.65,1.42,3.63,2.31,5.64,3.1,4.97,1.96,8.74,5.55,11.21,10.02ZM136.23,194.23c-1.82.05-3.62.28-5.4.75-.08.01-.16.04-.24.05,1.85-.5,3.73-.79,5.64-.8ZM129.66,195.26c-1.25.37-2.36.94-3.25,1.42.86-.49,1.97-1.13,3.25-1.42Z"/>
      <path class="cls-25" d="M61.29,27.49c-.47.53-.99.47-1.47.07-2.01-1.67-4.1-3.26-5.5-5.53-.56-.91-.89-1.82-.4-2.92.6-1.38,1.08-2.81,1.61-4.22-.14-2.16.05-4.23,1.68-5.89,5.89-1.63,11.72-3.44,17.48-5.48,3.27-1.16,6.43-2.42,9.74-.23.17.11.47,0,.7-.05,1.72.07,2.48,1.59,3.62,2.49,2.04,1.61,4.26,3.06,5.64,5.38.1.12.14.26.12.41-.56.74-1.39.68-2.18.72-8.29.4-16.09,2.82-23.78,5.7-1.21.68-2.69.81-3.72,1.84-1.12.62-2.4.93-3.39,1.79-.31.29-.77.29-1.09.57-.21.18-.49.21-.7.32.03-.02.01,0,.04-.02.31-.09.57-.2.8-.39.36-.15.74-.27,1.03-.54.95-.72,2.07-1.09,3.14-1.56.95-1.09,2.45-1.15,3.6-1.87,5.56-2.27,11.35-3.72,17.23-4.87,1.08-.21,2.65-.74,2.99.46.39,1.35-.91,2.51-2.2,2.99-2.08.79-4.16,1.58-6.22,2.43-4.36,1.8-8.62,3.83-12.43,6.62-1.95,1.43-4.02,1.94-6.35,1.78Z"/>
      <path class="cls-19" d="M48.33,127.57c.14-.3.27-.6,0-.89.01-.09.02-.18.03-.26-.18-.23-.36-.44-.56-.65-3.19-3.01-6.04-6.33-8.92-9.61-.41-.46-.76-1.32-1.43-1.05-.87.35-.35,1.24-.28,1.91.08.78.35,1.59-.52,2.14-.24,0-.44-.08-.62-.23-.25-.25-.54-.45-.81-.67-8.2-7.55-14.25-16.47-17.46-27.24-.84-2.82-1.75-5.63-2.6-8.45-.56-1.87-.78-3.74-.19-5.64,1.18-1.26,2.17-2.68,3.26-4.02.49-.6.81-1.63,1.96-1.32.62,1.46.42,2.97.17,4.45-.54,3.24-.21,6.38,1.23,9.3,3.74,7.57,8.02,14.83,13.21,21.52,1.42,1.83,3.04,3.47,4.96,4.78.18.12.34.27.47.43.19.42.5.01.75.1,1.22.33,1.66,1.44,2.28,2.34,1.36,1.96,2.99,3.53,5.43,4.03,1.57.68,3.07,1.58,4.93,1.1.63-.16,1.23.18,1.57.81-.17,1.81-1.56,3-2.68,4.03-1.15,1.07-2.69,1.7-3.38,3.3-.11.26-.57.06-.81-.19Z"/>
      <path class="cls-3" d="M149.54,125.79c-.1,1.05-.96,1.21-1.71,1.34-.66.12-1.24.3-1.67.82-1.65,2.03-3.33,3.99-3.81,6.73-.75,4.33-2.03,8.43-4.67,12.1-1.61,2.23-2.7,4.84-3.96,7.31-.82,1.61-2.02,2.82-3.47,3.86-1.82,1.3-1.81,1.35-1.17,3.61-1.61-.3-2.81-1.13-3.77-2.29-2.04-2.49-4.66-3.42-7.83-3.91-6.1-.95-12.18-2.22-17.81-4.96-1.26-.62-2.6-1.24-3.38-2.55-.14-.19-.13-.38.03-.55,1.02-.06,1.83.47,2.68.91,4.5,2.28,9.13,3.97,14.22,4.54,2.8.32,5.62.95,8.41,1.62.63-.51-.34-1.23.51-1.9,1.25.04,2.58.83,3.99,1.23.98.28,1.92.71,2.93.99,2.37.65,2.48.78,3.67-1.36,1.12-2.01,2.52-3.87,3.32-6.06-.22-1.64-1.43-2.42-2.75-3.07-4.48-2.19-8.58-4.94-12.33-8.22-1-.87-2.27-1.57-2.36-3.14.15-.35.35-.61.78-.41,1.25.55,2.16,1.58,3.23,2.37,4.67,3.4,9.35,6.78,14.83,9.16,1.35-3.15,2.38-6.43,3-9.82.29-1.61.83-3.01,1.82-4.28.44-.56.99-1.07,1.28-1.71,1.24-2.77,3.44-2.92,5.96-2.34Z"/>
      <path class="cls-16" d="M68.12,49.59c-.76-.49-1.6-.7-1.43-2.1.13-1.05-.68-2.22-1.11-3.33-.45-1.14-.86-2.25.08-3.34.08-.16.2-.22.37-.16,0,0,.21-.06.21-.06,0,0-.18-.13-.19-.14-.22-.64-.93-1.15-.48-1.94-.28-.68-.35-1.45-.87-2.02-.4-.42-.33-.98-.44-1.48.1-.53.17-1.1.96-.91,1.11,3.2,2.86,6.1,4.27,9.15.06.51-.14.69-.64.54-.61-.5-1.28-.84-2.21-.84.39,1.96,1.61,3.48,2.32,5.22.21.52.91.57,1.4.81,3.85,1.88,7.61,3.87,10.88,6.74,2.49,2.19,5.07,4.27,7.16,6.89,2.75,3.45,4.59,7.43,6.69,11.25.99,1.8,1.99,3.6,3.01,5.37,3.04,5.29,5.53,10.87,8.37,16.26,2.92,5.54,5.95,11.01,8.21,16.87.34.89.75,1.74.87,2.69.24.53-.01.66-.5.59-.51-.53-.3-1.42-.93-1.89-.8-.17-.66-.99-1.03-1.47l.02.03c-1.89-2.79-3.2-5.89-4.55-8.94-2.4-5.42-5.82-10.24-8.58-15.45-3.55-6.69-7.36-13.24-11.12-19.82-3.04-5.33-7.46-9.3-12.32-12.85-2.32-1.69-4.76-3.22-7.27-4.62-.26-.18-.51-.39-.74-.61-.13-.15-.27-.31-.42-.45Z"/>
      <path class="cls-31" d="M133.65,174.18c-.12,0-.24,0-.36,0-.89-.68-1.03-1.34-.4-2.42,1.24-2.11,2.4-4.24,3.81-6.27,2.04-2.93,4.2-5.75,6.4-8.56,1.26-1.61,1.74-3.43,1.85-5.51.16-3.05.31-6.15,1.75-8.98.93-1.84,2.29-3.22,4.12-4.16.14-.07.29-.13.43-.2,3.13-1.64,3.43-2.68,2.18-6.07-.8-2.17-2.25-4.02-2.91-6.24.46-.31.81-.31,1.21.17,2.44,2.92,3.83,6.36,5.06,9.89.24.7.25,1.13-.58,1.48-1.31.54-2.51,1.39-3.84,1.87-2.11.76-2.91,2.55-3.24,4.38-.34,1.87-.86,3.7-1.19,5.58-.24,1.35.41,1.7,1.16,2.18,2.08,1.32,4.16,2.67,5.86,4.46,1.58,1.66,3.42,3.09,4.6,5.11.72,1.23.6,1.35-.82,1.87-1.45.53-2.8.17-4.22.04-2.92-.27-5.84-.51-8.71-1.07-1.08-.21-2.14-.51-3.35-.81-2.5,3.72-5.89,6.93-8.01,11.07-.36.71-.86,1.35-.78,2.2Z"/>
      <path class="cls-16" d="M94.38,11.11c-3.02-2.56-6.04-5.12-9.05-7.68-.4.19-.85.14-1.11-.14-1.9-2.03-4.23-1.59-6.46-1-6.24,1.66-12.37,3.65-18.41,5.94-.68.26-1.18.83-1.9.97-1.21,1.71-1.4,3.75-1.92,5.69-.91-1.44-.4-2.9-.05-4.35-.01-1.64-.7-2.2-2.35-1.65-2.06.69-4.27.59-6.4.76-5.22.43-8.81,3.32-11.92,7.13-2.17,2.66-4.77,4.93-7.06,7.48-.27.3-.62.5-1.05.5-.39-.12-.65-.31-.46-.77,1.73-2.94,3.98-5.5,6.03-8.21,1.76-2.33,3.58-4.61,5.91-6.43.83-.65,1.68-1.05,2.73-1.27,5.07-1.05,10.18-1.47,15.34-1.36,1.21.03,2.32-.39,3.44-.79,5.83-2.07,11.63-4.25,17.72-5.46.54-.11,1.08-.29,1.61-.43.65-.01,1.31-.03,1.96-.04.65,0,1.29.02,1.94.03,1.94.51,3.12,2.12,4.61,3.26,1.89,1.44,3.76,2.94,5.31,4.76.75.88,1.65,1.73,1.54,3.07Z"/>
      <path class="cls-24" d="M15.27,76.81c-.44,3.84,1,7.34,2.07,10.89.64,2.12,1.59,4.17,2.11,6.32.68,2.83,2.06,5.35,3.46,7.79,2.84,4.96,6.19,9.6,10.21,13.71.89.9,1.85,1.73,2.78,2.6.16.13.3.28.44.43.03.15.05.31.05.47-.3.29-.59.3-.89,0-1.58-.47-2.74-1.64-3.89-2.67-4.61-4.12-8.01-9.21-10.99-14.56-2.4-4.3-3.72-9.06-5.26-13.72-.8-2.41-1.65-4.8-2.01-7.33-.32-2.31-.48-4.73.86-6.68,1.79-2.61,3.21-5.47,5.26-7.91.86.19,1.38.6.66,1.45-.42.49-.83.96-.98,1.6-.56,2.91-2.47,5.13-3.89,7.6Z"/>
      <path class="cls-40" d="M.86,133.41c-.12,0-.23,0-.35,0-.15-.05-.22-.12-.19-.22.02-.11.06-.16.1-.16l.07-.08c.1-.19.22-.36.37-.52h0c.32-.24.21-.69.47-.96,2.46-4.41,6.02-7.64,10.47-9.97,1.61-.84,3.21-1.61,5.02-1.92,2.34-.39,3.79.37,4.8,2.51.88,1.86,1.75,3.73,2.75,5.54,2,3.63,4.93,6.17,9,7.25,2.68.71,5.33.81,7.88-.53.57-.3,1.17-.49,1.83-.49.51-.24.99-.4.96.47-1.97,1.6-4.26,2.45-6.73,2.82-1.7.26-3.32-.26-4.91-.73-4.86-1.44-8.27-4.61-10.53-9.08-.65-1.28-1.25-2.58-1.81-3.89-.73-1.69-1.58-2.11-3.35-1.6-3.05.87-5.52,2.76-8.05,4.54-2.88,2.02-5.08,4.79-7.76,7.02Z"/>
      <path class="cls-33" d="M65.22,34.1c-.44.21-.55.6-.58,1.04-1.07-.17-.66-.85-.5-1.45,0-.51,0-1.02-.01-1.52-.27-.77-.29-1.54,0-2.31.04-.72-.26-1.26-.98-1.41-.74-.15-1.2-.74-1.87-.96-.23-.2-.46-.4-.62-.55,0-.33.11-.48.28-.42,2.49.94,4.57.21,6.63-1.32,5.29-3.94,11.37-6.33,17.46-8.67,1.92-.74,1.94-.68,3.26-2.89-.9-.19-1.72-.04-2.57.12-4.92.93-9.71,2.33-14.54,3.61-1.07.28-1.97,1.1-3.16.96-.14-.11-.19-.22-.13-.32.05-.1.1-.15.15-.15,5.27-2.53,10.81-4.17,16.53-5.32,3.29-.66,6.58-1.07,9.94-1.01.45.19.93.41.81,1-.1.48-.57.46-.97.45-.64-.02-1.28.01-1.91-.05-2.19-.23-3.43,1.06-4.02,2.87-.28.84-.65,1.11-1.35,1.32-7.49,2.29-14.42,5.73-20.96,10.03-.6.39-.84.76-.89,1.49-.11,1.83-.05,3.65,0,5.48Z"/>
      <path class="cls-30" d="M44.02,134.34c-.21-.37-.58-.43-.96-.47.96-.67,1.61-1.31,1.52-2.76-.14-2.19,1.05-3.11,3.76-3.54.64.16.89-.23.92-.74.07-1.03.74-1.51,1.57-1.86.95-.41,1.67-.91,2.13-1.99.41-.96,1.4-1.67,2.13-2.48.53-.83,1.3-1,2.21-.83.68.25,1.25.69,1.84,1.09.77.67,1.34,1.43.98,2.54-.17.33-.43.56-.78.67-1.25-.42-1.93-2.65-3.81-1.09-.85.71-1.44,1.37-1.38,2.57.08,1.75.29,3.47.77,5.18.5-.31.43-.88.73-1.25.13-.19.31-.33.53-.4.11.04.21.08.32.12.17,1.31-.41,2.5-.59,3.76-.15,1.11-1.14,1.26-1.88.38-.46-.55-.85-1.11-.9-1.9-.09-1.42-.32-2.84-.46-4.26-.06-.57-.04-1.17-.78-1.28-.72-.11-1.27.19-1.52.88-.7,1.91-.89,3.87-.22,5.83.14.42.7.78.17,1.22-.31.25-.83.29-1.12,0-.68-.68-.95-.33-1.42.29-1.27,1.69-1.34,1.67-2.68.09-.61-.71-.7.28-1.08.24Z"/>
      <path class="cls-53" d="M21.4,57.99c-.1-5.34.32-10.67.02-16.01-.15-2.61,0-5.22-.08-7.82-.08-2.44.31-4.54,2.13-6.24.61,0,.65.44.69.89-.79,3.44-.49,6.95-.56,10.43-.12,5.62.6,11.27-.66,16.84-.19.84-.19,1.75-.82,2.45-.55.24-.83.12-.72-.53Z"/>
      <path class="cls-35" d="M35.5,119.01c.3,0,.6,0,.89,0,.76-.7.27-1.44.12-2.2-.17-.9-.62-2.15.36-2.6,1.09-.49,1.71.68,2.38,1.46,2.44,2.81,4.79,5.69,7.49,8.27.66.63,1.56,1.16,1.61,2.26,0,.09,0,.18.01.27,0,0-.04.21-.04.21-4.37-1.96-7.36-5.54-10.44-9.28-.34,1.06-.29,1.73.11,2.37-.09.1-.14.14-.14.14-.05.05,0,0,.12-.16-1.09.64-1.72-.27-2.48-.73Z"/>
      <path class="cls-15" d="M115.06,115.65c.17-.2.33-.39.5-.59,1.05,1.88,1.48,3.98,2.19,5.98.15.43.23.93,0,1.42-1.03-.04-1.4-1.29-2.66-1.32,1.16,3.91,2.03,7.85,4.34,11.26-.19.16-.37.33-.56.49-1.06.43-1.65-.25-2.23-.94-.82-2.51-2.55-4.78-2.11-7.65-.64-1.55-.62-3.27-1.35-4.8-.17-.35-.16-.83.17-1.11.38-.32.72,0,1.05.22.46.3.95.56,1.57.92.4-1.58-.96-2.58-.91-3.88Z"/>
      <path class="cls-17" d="M23.97,28.46c-.16-.18-.33-.36-.49-.55.22-.61.57-1.13,1.14-1.48.21-.19.43-.22.68-.09.38,1.22-.07,1.92-1.32,2.11Z"/>
      <path class="cls-1" d="M21.4,57.99c.17.2.34.39.5.59.7.68.45,1.3-.11,1.9-.22.16-.44.17-.67.03-.04-.85-.34-1.74.28-2.52Z"/>
      <path class="cls-8" d="M26.23,23.99c.17.19.34.39.51.58.27,1.03-.43,1.36-1.19,1.65-.23,0-.43-.07-.6-.22.35-.72.59-1.51,1.29-2.01Z"/>
      <path class="cls-29" d="M68.85,43.8c.21-.18.42-.36.64-.54.55.45.58,1.13.64,1.9-.43-.45-.85-.91-1.28-1.36Z"/>
      <path class="cls-23" d="M21.12,60.51c.1.02.2.02.29.01.31.23.34.51.16.83-.03.4-.05.8-.09,1.19-.02.21-.05.48-.36.26-.11-.08-.11-.29-.17-.44-.07-.63-.05-1.25.15-1.86Z"/>
      <path class="cls-49" d="M1.33,131.48c.05.42-.07.76-.47.96-.02-.41,0-.79.47-.96Z"/>
      <path class="cls-49" d="M.42,133.04c.06.12.09.25.1.38-.17,0-.34,0-.52.01.02-.26.17-.37.42-.39Z"/>
      <path class="cls-49" d="M.86,132.44c.03.28-.09.45-.37.52-.01-.27.12-.43.37-.52Z"/>
      <path class="cls-9" d="M24.95,26c.14.05.29.05.43,0,.11.19.06.34-.12.44-.21,0-.42,0-.64,0,.11-.14.22-.29.33-.43Z"/>
      <path class="cls-27" d="M57.44,120.01c-.84-.15-1.55.36-2.35.47-.44-.15-.99-.54-1.29-.4-1.93.87-3.46.04-4.99-.98-.12-.08-.3-.06-.46-.08-3.55-2.75-6.31-6.27-9.11-9.7-3.46-4.24-7.01-8.44-9.6-13.32-1-2-2.04-3.97-2.97-6.01-.66-1.44-1.39-2.93-.38-4.54,1.97-.59,2.63,1.11,3.5,2.18,2.99,3.64,5.65,7.54,8.59,11.23.67.84,1.06,1.58,2.6,1.18,1.99-.51,2.81,1.74,4.18,2.7-.17-.87-.28-1.85.68-2.5.83-.56,1.66-.38,2.47.11.38.23.67.55,1.26.22,3.01-1.71,3.02-1.68,5.42.55.23.21.4.51.99.52-1.46-1.93-3.1-3.53-4.53-5.3-1.51-1.87-2.93-3.8-3.87-6.03-.39-.93-.94-1.91-.18-2.94,1.41-1.25,1.91-1.3,3.05-.03,1.1,1.21,2.15,2.48,3.12,3.79.71.96,1.45,1.84,2.46,2.47,1.87,1.01,2.88,2.9,4.36,4.31,1.45,1.38,2.85,2.29,4.87,1.36.7-.32,1.48-.32,2.05.15,2.89,2.41,5.23,5.21,5.98,9.05.16.64.32,1.28.48,1.91.23,1.57-.05,3.15.32,4.74.19.8-.34,1.65-1.29,1.98-.86.08-1.03.64-.89,1.36.09.46.3.91.38,1.38.18,1.1-.27,1.67-1.43,1.61-1.18.95-2.51.62-3.82.46-1.72-.57-2.41-2.25-3.66-3.34-2.38-1.15-4.02.77-5.95,1.44Z"/>
      <path class="cls-11" d="M47.39,87.37c.33,3.36,2.31,5.89,4.33,8.35,1.41,1.72,2.72,3.54,4.45,4.98.86.72.87,1.45-.03,2.31-.87-.38-1.28-1.29-1.93-1.91-2.16-2.05-3.43-1.86-4.65.78-.79-.12-1.09-.89-1.69-1.26-.6-.37-1.22-.42-1.8-.04-.63.41-.65,1.06-.5,1.71.15.67.76,1.2.64,2.29-1.35-1.32-2.5-2.5-3.7-3.63-.76-.71-1.57-1.18-2.32.1-.44.76-.81.11-1.05-.2-1.98-2.59-3.93-5.2-5.89-7.8-1.44-1.9-2.82-3.85-4.35-5.67-.69-.82-1.32-1.87-2.61-1.94,0-1.03-.02-2.07,0-3.1,0-.47,0-.97.16-1.41.32-.91.72-1.89,1.77-2.08,1.17-.21,1.68.76,2.04,1.65,1.12,2.73,2.48,5.33,3.75,7.98.48,1,.91,1.73,2.3,1.33,1.78-.51,2.74.93,3.74,2.02.65.71.98,1.44,2.25.62,1.1-.72,2.58-.5,3.88.47-.18-2.11-.87-4.15,1.19-5.55Z"/>
      <path class="cls-27" d="M87.68,104.15c1.52-.11,2.26.92,2.92,2.03.98,1.68,1.93,3.25,3.65,4.45,1.78,1.24,2.4,3.46,2.53,5.66.08,1.31-.62,2.07-1.92,2.26-1.28-.04-1.6-1.15-2.05-2-1.37-2.56-2.79-5.11-3.54-8.16-.08.67-.18,1.12-.49,1.49-.92.1-1.88-1.75-2.83.14-.2.41-1.06-.05-1.43-.47-2.98-3.36-6.79-6.01-8.82-10.2-.48-.8-.96-1.59-1.44-2.39-.29-.26-.18-.71-.48-.96h0c-1-1.46-1.59-3.12-2.19-4.76-.33-.89-.3-1.76.49-2.4.87-.71,1.78-.53,2.66.03.27.17.52.38.74.6,3.95,3.9,8.04,7.68,10.56,12.77.36.73.6,1.71,1.64,1.91Z"/>
      <path class="cls-28" d="M25.25,26.44c.11-.13.15-.28.12-.44.67-.27,1.04-.83,1.37-1.43,4.01-4.19,7.74-8.65,12.03-12.59,1.31-1.21,2.69-1.86,4.35-2.21,3.43-.73,6.92-1.03,10.39-1.51.92-.13,1.79-.79,2.84-.32.27,1.05-.88,1.64-.88,2.6-4.67.53-9.31,1.31-14.01,1.52-1,.05-1.64.6-2.2,1.27-3.9,4.65-8.13,9.01-11.63,13.99-.82,1.16-2.25,2.15-2.49,3.4-.23,1.19.29,2.66.16,4-.58,5.88-.02,11.83-.95,17.67-.39,2.44-.94,4.84-1.01,7.33-.03.9-.29,2.03-1.74,1.63-.05-.28-.11-.55-.16-.83.5-.56.66-1.21.49-1.94,1.41-6.75,1.18-13.56.86-20.38-.11-2.21.03-4.43.06-6.65.02-1.16.63-2.11,1.15-3.09.69-.5,1.02-1.24,1.28-2.02Z"/>
      <path class="cls-13" d="M68.97,49.91c5.85,3.02,11.16,6.79,15.75,11.5,2.34,2.4,4.2,5.23,5.77,8.18,3.33,6.25,7,12.31,10.21,18.63,1.22,2.4,2.57,4.76,4.12,6.95,1.99,2.83,3.21,6.04,4.85,9.04,1.15,2.09,2.01,4.34,3.03,6.5.24.51.49,1.01.41,1.59-1.11-.09-1.64-.88-2.07-1.77-3.08-6.38-6.63-12.52-9.64-18.94-1.28-2.73-2.98-5.26-4.53-7.86-2.52-4.24-4.8-8.63-7.54-12.74-3.69-5.54-7.8-10.63-13.59-14.2-2.36-1.46-4.49-3.3-6.69-5-.7-.54-1.37-1.17-.94-2.22.08.01.17.02.25.02.24.02.42.17.6.31Z"/>
      <path class="cls-31" d="M88.62,109.9c.07-.85-.07-1.76.78-2.55,1.38,4,2.91,7.85,5.45,11.2,1.1,3.04,3.13,5.51,5,8.07.17.24.49.4.35.99-4.31-3.09-6.73-7.44-8.98-11.99-.04,2.87.5,5.61,1.15,8.54-1.55-.28-2.37-1.28-3.14-2.21-3.2-3.86-6.08-7.95-8.8-12.16-.96-1.48-2.04-2.85-3.35-4.03-2.87-2.59-5.02-5.74-7.02-9.02-.29-.48-.53-.98-1.08-1.24-1.42-1.31-2.16-3.04-2.89-4.77.06-1.59-.74-3.09-.49-4.7.07-.44-.15-.97.42-1.25.65-.01.79.55.86.95.56,3.03,2.36,5.5,3.7,8.17,1.64,3.26,4.13,5.97,6,9.08.46.77,1.28,1.15,1.96,1.67.11.05.21.1.32.15,4.14,4.5,7.17,9.79,10.52,14.05-.22-2.3-1.57-5.22-1.18-8.38.1-.22.23-.41.4-.58Z"/>
      <path class="cls-11" d="M66.09,90.74c.22.06.6.07.64.2.53,1.63,1.93,2.84,2.25,4.57.38,2.1,1.81,3.66,2.83,5.42.84,1.45,1.58,2.92,1.93,4.55.18.88.5,1.65,1.06,2.34.32.39,1.01.75.34,1.34-.46.4-.87,0-1.24-.3-.18-.15-.4-.25-.6-.38-1.05-2.42-2.72-4.47-4.13-6.67-.46-.71-1.18-1.29-1.87-1.81-.56-.42-1.13-.59-1.95-.19-2.04,1.01-3.06.75-4.64-.83-1.68-1.68-3.5-3.25-4.67-5.37.35-1.33,1.15-1.5,2.34-1,1.6.67,2.78,1.83,3.75,3.19.51.71,1.01,1.37,2.17,2.2-.79-2.24-1.93-3.78-2.37-5.6-.29-1.22-.67-2.43-.87-3.67-.24-1.51.61-2.18,2.19-1.84,1.85.64,1.29,2.76,2.38,3.86l-.02-.02c.17.17.34.16.51,0l-.02.02Z"/>
      <path class="cls-11" d="M87.68,104.15c-.37.66-.86,1.17-1.31.15-1.25-2.85-3.16-5.3-4.74-7.95-.78-1.3-1.62-2.54-3.32-2.81-.8-.13-1.08-.93-1.43-1.51-.63-1.05-1.51-1.84-2.35-2.68-.57-.56-1.25-.71-1.97-.35-.79.4-.83,1.19-.67,1.87.24,1,.64,1.96,1.01,2.92.29.73.82,1.37.86,2.2-.76-.29-.99-1.01-1.3-1.64-1.82-3.81-3.23-7.77-3.92-11.95-.22-1.37-.13-2.72.86-3.83,1-1.14,2.12-1.07,2.91.2.3.47.56.97.75,1.5,1.48,4.18,4.08,7.69,6.56,11.29,2.52,3.66,5.01,7.35,7.49,11.03.31.45.56.97.56,1.56Z"/>
      <path class="cls-27" d="M88.64,130c-.38-.78-.93-1.49-.96-2.42-.03-1.14.69-1.71,1.66-1.16,2.53,1.43,5.2,2.67,6.71,5.41.37.68,1.11,1.14,1.61,1.76.91,1.14,2.12,2.06,2.18,3.76.03.85,1.03,1.11,1.65,1.6.52.41,1.48.85,1.12,1.6-.5,1.02-1.47.46-2.05-.01-1.58-1.28-3.71-1.47-5.25-2.79-1.93-.7-3.37-2.16-4.11-3.88-.65-1.51-1.52-2.71-2.57-3.87Z"/>
      <path class="cls-31" d="M66.57,121.39c1.43.02,2.87.04,4.3.06,1.66.74,3.51.57,5.22,1.28,2.87,1.19,4.89,3.05,5.95,6,.39,1.1.51,2.32,1.32,3.26.88.14,1.48.73,1.74,1.48.85,2.45,1.82,4.9,1.1,7.59-.33,0-.67,1.35-.99.03-.34-1.38-.61-2.79-.88-4.19-.17-.86-.3-1.76-.9-2.42-1.25-1.39-2-3.02-2.68-4.75-1.69-4.3-5.25-5.96-9.56-6.37-1.5-.14-3.03,0-4.55-.04-1.88-.04-3.3,1.08-4.81,1.92-1.92,1.07-4.03,1.91-5.34,3.85,0,0,.02.01.02.01-.17-.17-.28-.37-.36-.6-.08-2.34,1.49-3.55,3.21-4.65.17-.17.34-.35.51-.52,1.33-.87,2.72-1.61,4.2-2.19.86-.34,1.7-.28,2.49.25Z"/>
      <path class="cls-45" d="M40.21,112.32c-1.65-.65-2.95-1.77-4.16-3.05-4.24-4.49-7.16-9.89-10.38-15.07-2.14-3.44-4.08-7-5.48-10.84-.82-2.26-.83-4.58-.49-6.84.25-1.67.32-3.32.34-4.98-.71-.78-.58-1.57,0-2.36.08-.22.11-.56.26-.63.57-.27.68.19.68.58,0,2.71-.01,5.41-.02,8.12,0,2.28-.02,4.48,1,6.69,2.33,5.06,5.17,9.82,8.08,14.55.12.19.37.29.56.43,1.91,1.44,2.58,3.8,4.12,5.53,1.53,1.73,2.81,3.67,4.4,5.37.62.66,1.38,1.39,1.1,2.5Z"/>
      <path class="cls-31" d="M88.64,130c1.76.37,2.68,1.5,2.85,3.25.05.48.06,1.04.51,1.25,1.5.69,2.13,2.25,3.31,3.25,0,.95,0,1.91,0,2.86-.28.43.08.82.07,1.24.03.34.02.68-.03,1.02-.43,1.57-.45,3.33-1.94,4.43-.55.79-1.26,1.38-2.08,1.91-.99.64-1.45.28-1.75-.67-.52-1.67-1-3.34-1.05-5.1-.94-.18-1.53.53-2.28.7-.53.12-.99-.08-1.22-.51-.22-.41.1-.76.47-.96.49-.28.98-.54,1.23-1.08.1-.7.59-1.13,1.14-1.43,1.29-.7,1.58-1.82,1.6-3.19.06-4.18.02-4.3-3.88-5.89-.3-.12-.56-.29-.75-.56-.44-.28-.88-.57-1.54-.98,2.04-.95,3.64.41,5.34.47Z"/>
      <path class="cls-31" d="M65.62,90.75c-.85-.42-1.12-1.25-1.41-2.05-.23-.66-.41-1.34-.98-1.81-.03-.32.01-.67-.12-.94-2.07-4.35-2.33-9.05-2.48-13.73-.15-4.67.14-9.34,1.21-13.89.54-2.32,1.02-4.8,3.09-6.54-.61,2.65-1.37,5.28-1.81,7.96-1.02,6.14-1.18,12.27-.25,18.49.64,4.26,1.89,8.33,2.75,12.52Z"/>
      <path class="cls-11" d="M72.81,117.1c.74-1.26,1.28-2.49.25-3.92-.79-1.1.83-1.76.72-2.79,2.58,2.02,4.51,4.63,6.4,7.24.93,1.28,1.53,2.76,3.04,3.54.44.23.7.69.48,1.21-.23.56-.88.64-1.2.39-2.96-2.23-6.97-2.62-9.57-5.45-.05-.06-.07-.14-.11-.21Z"/>
      <path class="cls-13" d="M116.89,131.99c.66.3,1.31.6,1.97.9.39.91,1.15,1.49,1.87,2.1,3.92,3.35,8.05,6.39,12.74,8.61.71.34,1.32.9,2.04,1.2,1.43.58,1.18,1.44.55,2.44-.39-.04-.84.04-1.16-.13-6.23-3.4-12.18-7.18-17.03-12.47-.6-.65-1.12-1.34-1.42-2.18-.22-.5.03-.57.44-.47Z"/>
      <path class="cls-47" d="M84.84,130.51c.47.03.96,0,1.41.11,3.25.77,3.56,1.53,3.91,4.88.31,3.04-.71,4.93-3.43,6.07-.18-.17-.35-.35-.53-.52-.29-1.47-.71-2.92-.84-4.4-.15-1.82-.83-3.34-2.01-4.67-.11-1.11.43-1.54,1.48-1.47Z"/>
      <path class="cls-20" d="M40.21,112.32c-2.1-2.66-4.24-5.29-6.29-7.99-1.28-1.69-2.48-3.45-3.33-5.41.02-1.08-.94-1.84-.95-2.91,1.83,1.78,3.07,4,4.62,6,3.55,4.57,7,9.22,11.09,13.35,1.11,1.12,2.01,2.45,3,3.68-2.37-.5-3.96-2.01-5.33-3.9-.72-.99-1.1-2.29-2.39-2.79-.16.13-.31.11-.45-.03l.03.02Z"/>
      <path class="cls-18" d="M103.02,114.43c-.01,1.37-.5,1.71-1.81,1.32-.3-.09-.69-.11-.89-.3-2.12-2.06-3.36-4.6-3.83-7.49-.09-.53.27-1.13.87-1.3.7-.2,1.45-.22,1.99.4.26.3.42.67.61,1.02.82,1.55,1.48,3.18,2.52,4.61.37.51.61,1.13.55,1.74Z"/>
      <path class="cls-21" d="M36.36,55.71c-2.98,3.51-5.95,7.03-8.93,10.54-.27.32-.64.52-1.05.4-.45-.13-.54-.54-.54-.95,0-1.67-.15-3.37.1-5.01.17-1.18.34-2.35.36-3.54.01-.71.03-1.42.96-2.09-.05,2.95.15,5.69-.24,8.59,1.05-.28,1.44-1.2,1.94-1.87,1.87-2.53,4.2-4.55,6.72-6.38.18-.13.46-.11.69-.16.12.11.16.21.12.32-.04.11-.08.16-.12.16Z"/>
      <path class="cls-38" d="M49.76,18.2c-1.4,1.69-4.13,1.55-5.64-.3-.15-.18-.25-.41-.37-.61q-1.33-2.19-3.55-1.07c.89-1.64,2.15-2.19,4.37-1.96,2.61.28,5.23.48,7.83-.11.4-.09.8-.16,1.06.26.24.4.16.87-.19,1.07-.73.42-.82,1.84-2.11,1.35-1.82-.61-3.67-1-5.75-.68.94,2.04,3.1,1.08,4.36,2.04Z"/>
      <path class="cls-34" d="M88.62,109.9c0,.16,0,.33,0,.49-.22,1.57-.94,1.84-2.37,1.14-3.24-1.58-5.44-4.25-7.7-6.89,0,0,0,0,0,0,.01-1.26-1.19-1.79-1.67-2.77-.41-.83-1.11-1.53-1.19-2.52,1.61,1.3,2.38,3.28,3.9,4.7,1.83,1.71,4.08,2.98,5.41,5.24.38.65,1.08.72,1.24-.34.03-.23.03-.47.06-.71.05-.35.26-.59.6-.63.33-.04.56.16.78.42.47.55.32,1.41.95,1.87Z"/>
      <path class="cls-12" d="M36.36,55.71c0-.16,0-.32,0-.48.39-.7.91-1.08,1.29-.08.27.72.22,1.56.34,2.34.58,3.84,1.87,7.49,3.1,11.31-2.69-2.41-4.22-7.23-4.25-13.09h.01c-.16,0-.32,0-.49,0Z"/>
      <path class="cls-46" d="M49.76,18.2c-2.04.31-3.99.35-5.29-1.67-.08-.13-.16-.28-.19-.43-.03-.14,0-.3,0-.58,2.2-.26,4.38.11,6.55.34.52.06.36.6.34.98-.47.46-.93.91-1.4,1.37Z"/>
      <path class="cls-6" d="M20.04,69.17c0,.79,0,1.57,0,2.36-1.15,1.49-2.32,2.97-3.45,4.47-.35.46-.69.86-1.33.81-.18-.85.27-1.51.66-2.18,1.07-1.81,2.15-3.61,3.22-5.42.29-.01.59-.03.88-.04Z"/>
      <path class="cls-52" d="M116.89,131.99c-.15.16-.29.31-.44.47-1.12-1.63-1.8-3.46-2.31-5.34-.24-.9-.63-2,.39-2.82.53,2.08,1.14,4.14,2.11,6.06.27.53.3,1.06.25,1.62Z"/>
      <path class="cls-14" d="M94.88,141.58c0-.39.07-.75.44-.97,1.99,1.09,2.5,2.44,1.74,4.67-.23.67-.7,1.26-.73,2.01,0,.18-.02.37-.03.55-.32.02-.66.51-.96-.04-.38-1.73.87-3.41.13-5.14-.12-.4-.23-.8-.59-1.07Z"/>
      <path class="cls-39" d="M64.14,33.7c.11.5.03,1.07.5,1.45.02.45.04.9.06,1.35-.06.2-.04.45-.31.53-.1-1.11-1.29-2.14-.25-3.33Z"/>
      <path class="cls-41" d="M66.06,40.89c-.13-.02-.27-.04-.4-.06.04-.77-1.1-1.51-.08-2.31.37.78.75,1.56,1.12,2.34-.2.22-.42.23-.64.03Z"/>
      <path class="cls-10" d="M64.14,29.86c0,.77,0,1.54,0,2.31-.64-.77-.64-1.54,0-2.31Z"/>
      <path class="cls-37" d="M113.1,112.29c.67.26.58,1.05,1.03,1.47,0,0-.13-.02-.13-.02h-.13c-.11,0-.22.01-.32.02-.62-.35-.47-.92-.45-1.47Z"/>
      <path class="cls-32" d="M113.55,113.75c.11.01.22,0,.32-.01.12.18.21.49.02.54-.4.09-.3-.29-.35-.52Z"/>
      <path class="cls-11" d="M73.77,96c.39.21.47.57.48.96-.39-.21-.47-.57-.48-.96Z"/>
      <path class="cls-31" d="M66.11,90.72c-.17.39-.34.35-.51,0,.17,0,.34,0,.51,0Z"/>
      <path class="cls-48" d="M118.63,203.53c.73-.88,1.5-1.73,2.37-2.5.37-.32.85-.63.92-1.23-.53-.09-.75.16-.98.36-1.14,1.02-2.16,2.13-3.12,3.28.27.03.53.06.8.09Z"/>
      <path class="cls-51" d="M95.82,142.05c1.04,2.02.36,3.89-.49,5.74-.62-.23-1.66,1.19-1.91-.49.5-1.59,1-3.19,1.5-4.78.24-.28.36-.79.9-.47Z"/>
      <path class="cls-44" d="M129.42,194.81c.2.39.57.45.95.48-2.32.91-4.62,1.89-6.85,3.05,1.64-1.71,3.86-2.47,5.89-3.53Z"/>
      <path class="cls-4" d="M57.44,9.2c.42-.62.57-1.34,1.52-1.64,6.04-1.9,11.95-4.24,18.13-5.7,1.08-.25,2.15-.54,3.24-.73,1.24-.21,2.36.18,3.35.93.57.43,1.1.91,1.64,1.37-.36,1.07-1.15.85-1.69.35-2.17-1.99-4.53-1.23-6.75-.38-6.04,2.31-12.32,3.86-18.41,6.01-.4.14-.76.21-1.04-.21Z"/>
      <path class="cls-42" d="M68.03,17.86c0,.16-.01.32-.01.47-.88,1.05-2.42.91-3.36,1.87-.17-.1-.23-.21-.18-.32.05-.11.11-.17.16-.17.77-1.28,2.24-1.27,3.39-1.85Z"/>
      <path class="cls-5" d="M64.64,19.7c0,.17.01.33.02.49-1.11.51-2.1,1.3-3.36,1.47h0c.65-1.43,2.07-1.57,3.33-1.96Z"/>
      <path class="cls-36" d="M59.39,22.64c-.13.19-.23.42-.4.57-.22.19-.51.48-.73.04-.03-.07.26-.37.44-.47.2-.11.45-.11.68-.15,0,0,.02.02.02.02Z"/>
      <path class="cls-43" d="M61.3,21.67c-.2.4-.55.49-.96.49v-.02c.19-.41.56-.47.96-.47,0,0,0,0,0,0Z"/>
      <path class="cls-36" d="M59.38,22.62c.2-.4.56-.47.95-.48,0,0,.01.02.01.02-.2.4-.56.47-.95.48,0,0-.02-.02-.02-.02Z"/>
      <path class="cls-45" d="M40.19,112.3c.15.01.3.02.45.03-.17.31-.32.22-.45-.03Z"/>
      <path class="cls-35" d="M36.34,118.54c-.15-.14-.3-.29-.44-.43.15.14.3.29.44.43Z"/>
      <path class="cls-30" d="M48.37,126.47c0-.09-.01-.18-.01-.27.07.08.13.16.2.25l-.19.02Z"/>
      <path class="cls-2" d="M66.06,40.89c.21-.01.43-.02.64-.03.32.16.48.48.14.62-.37.15-.58-.3-.77-.59Z"/>
      <path class="cls-19" d="M68.97,49.91c-.26.02-.46-.08-.6-.31.27-.04.46.08.6.31Z"/>
      <path class="cls-19" d="M157.29,161.12c-1.79.31-3.41-.12-5.06-.33-2.12-.27-4.24-.58-6.4-.59-1.97-.01-2.27-.61-1.3-2.34.91-1.63,1.23-3.44,1.86-5.14.28-.75.71-1.33,1.55-.51,2.75,2.65,5.92,4.82,8.55,7.6.31.33.79.57.79,1.32Z"/>
      <path class="cls-50" d="M59.37,123.85c-.04.39-.05.86-.44,1.03-1.62.73-2.16,2.14-2.46,3.73-.14.18-.26.37-.42.53.02,1.07-.45,1.98-.98,3.19-1.19-1.7-1.02-3.54-1.43-5.2-.11-.45.07-.98-.04-1.42-.41-1.55.25-2.42,1.54-3.27,2-1.32,2.78-1.21,3.93,1.06.07.14.2.24.3.36Z"/>
      <path class="cls-19" d="M66.57,121.39c-1.92-.22-3.48.74-5.03,1.63-.55.32-.99.79-1.66.31.15-.99-.49-1.64-1-2.34-.36-1.22.01-1.96,1.33-2.28,1.16-.28,2.26-.79,3.49-.65,1.12.97,1.92,2.21,2.87,3.33Z"/>
      <path class="cls-7" d="M46.41,134.14c-1.75-3.24-1.21-4.75,2.07-5.8.28,2.29-.58,4.15-2.07,5.8Z"/>
      <path class="cls-20" d="M63.7,118.06c-.73.31-1.47.92-2.18.87-1.62-.11-2.25.75-2.64,2.06-.65-.07-1.13-.4-1.44-.98.52-.83.73-2.08,2.22-1.53.16.06.51-.09.63-.25,1.08-1.48,2.25-.75,3.41-.16Z"/>
      <path class="cls-49" d="M56.05,129.14c.14-.18.28-.35.42-.53.01.16.03.32.05.49-.16,0-.31.02-.46.04Z"/>
      <path class="cls-22" d="M78.55,104.65c2.08,1.36,3.42,3.53,5.54,4.87.87.55,1.8,1.02,2.62,1.62,1.15.85,1.44-.08,1.91-.75-.04,3.12,1.11,6.06,1.34,9.16-.73.2-.99-.42-1.29-.8-3.45-4.38-6.37-9.14-9.95-13.43-.14-.16-.12-.45-.18-.69Z"/>
      <path class="cls-50" d="M90.77,147.57c-.26-.91-.36-1.73-.71-2.42-.84-1.62-.85-2.91.48-4.44,1.01-1.15,1.02-2.96,1.08-4.59,1.92.99,2.7,2.48,2.34,4.24-.36,1.72-.86,3.39-1.41,5.06-.29.88-.75,1.56-1.77,2.14Z"/>
      <path class="cls-19" d="M95.82,142.05c-.3.16-.6.31-.91.47-.01-.31-.02-.63-.04-.94.4-.02.76.06.94.47Z"/>
      <path class="cls-19" d="M36.85,55.72c.06-.07.12-.13.19-.2-.01.04,0,.1-.04.12-.04.04-.11.05-.16.07,0,0,.01.01.01.01Z"/>
    </g>
  </g>
</svg>