<?xml version="1.0" encoding="UTF-8"?>
<svg id="Layer_2" data-name="Layer 2" xmlns="http://www.w3.org/2000/svg" viewBox="0 0 254.37 214.87">
  <defs>
    <style>
      .cls-1 {
        fill: #36747f;
      }

      .cls-1, .cls-2, .cls-3, .cls-4, .cls-5, .cls-6, .cls-7, .cls-8, .cls-9, .cls-10, .cls-11, .cls-12, .cls-13, .cls-14, .cls-15, .cls-16, .cls-17, .cls-18, .cls-19, .cls-20, .cls-21, .cls-22, .cls-23, .cls-24, .cls-25, .cls-26, .cls-27, .cls-28, .cls-29, .cls-30, .cls-31, .cls-32, .cls-33, .cls-34, .cls-35, .cls-36, .cls-37, .cls-38 {
        stroke-width: 0px;
      }

      .cls-2 {
        fill: #130f15;
      }

      .cls-3 {
        fill: #2b6971;
      }

      .cls-4 {
        fill: #387f8b;
      }

      .cls-5 {
        fill: #4495a1;
      }

      .cls-6 {
        fill: #2b5c66;
      }

      .cls-7 {
        fill: #3c8894;
      }

      .cls-8 {
        fill: #3c7f8b;
      }

      .cls-9 {
        fill: #000;
      }

      .cls-10 {
        fill: #336b76;
      }

      .cls-11 {
        fill: #32223c;
      }

      .cls-12 {
        fill: #4496a2;
      }

      .cls-13 {
        fill: #418d99;
      }

      .cls-14 {
        fill: #254a52;
      }

      .cls-15 {
        fill: #010101;
      }

      .cls-16 {
        fill: #0a0609;
      }

      .cls-17 {
        fill: #306d78;
      }

      .cls-18 {
        fill: #090609;
      }

      .cls-19 {
        fill: #43929e;
      }

      .cls-20 {
        fill: #0c0a0b;
      }

      .cls-21 {
        fill: #3f8c98;
      }

      .cls-22 {
        fill: #0b080c;
      }

      .cls-23 {
        fill: #42919d;
      }

      .cls-24 {
        fill: #43919d;
      }

      .cls-25 {
        fill: #3b7f8a;
      }

      .cls-26 {
        fill: #377580;
      }

      .cls-27 {
        fill: #2e616a;
      }

      .cls-28 {
        fill: #0f0e12;
      }

      .cls-29 {
        fill: #3c848f;
      }

      .cls-30 {
        fill: #0d0a0d;
      }

      .cls-31 {
        fill: #070507;
      }

      .cls-32 {
        fill: #030101;
      }

      .cls-33 {
        fill: #35808b;
      }

      .cls-34 {
        fill: #0f1d1f;
      }

      .cls-35 {
        fill: #261e2a;
      }

      .cls-36 {
        fill: #271f2b;
      }

      .cls-37 {
        fill: #418f9b;
      }

      .cls-38 {
        fill: #030304;
      }
    </style>
  </defs>
  <g id="tree_Image" data-name="tree Image">
    <g>
      <path class="cls-36" d="M250.48,125.07c-1.64-3.47-3.85-6.61-5.45-10.1-1.11-2.41-2.41-4.85-4.38-6.76-.51-.1-.96.06-1.4.31-3.06,2.48-6.46,4.32-10.19,5.59-2.59.88-2.73,1.62-.69,3.55,1.15,1.09,2.35,2.14,3.38,3.36,2.37,2.83,2.47,5.08.69,8.3-1.43,2.59-3.54,4.67-5.06,7.18.1,1.94-1.93,5.01-3.64,5.45-.79.2-.61-.46-.71-.86-.04-.22-.14-.41-.31-.56-.31.03-.63.06-.94.09-.51.18-1.08.08-1.56.38-.32.32-.52.71-.57,1.17-.05.65.41,1.16.53,1.8-.58-.45-.98-1.06-1.68-1.27-1.69-.35-3.1-1.25-4.41-2.31-3.96-3.22-8.06-6.25-11.86-9.67-6.14-5.52-13.41-9.47-20.24-14.03-.6-.4-1.22-.82-1.98-.77-3.1.22-6.3.09-9.21,1.21-9.78,3.77-18.92,8.85-27.93,14.17-.33.24-.62.52-.89.83-.16.08-.22.18-.16.32-.23-.14.01-.18.05-.25-.02-.19-.1-.34-.25-.45-.18-.07-.37-.11-.56-.1-.2.04-.38.12-.55.23-.33.29-.49.67-.59,1.09-.61,1.2-1.36,2.3-2.15,3.37.15-.33.18-.71-.01-1.19-1.36-.34-2.26.64-3.23,1.24-5.76,3.55-11.44,7.23-17.24,10.72-4.91,2.95-10.1,5.46-14.56,9.13-5.98,4.9-12.8,8.3-19.9,11.2-1.16.46-2.27,1.08-3.55,1.2-.58.34-.78-.03-.93-.49-.85-.48-1.23-1.54-2.24-1.83-1.64.54-3.03,1.67-5.23,2.18,1.95-1.04,3.33-1.73,2.91-4.01-1.72-9.26-3.25-18.56-3.48-28.01-.03-1.33.11-2.72-.48-4-.69-.41-1.33-.88-1.69-1.62-2.38-4.84-6.26-8.51-9.74-12.49-.2-.15-.42-.26-.66-.33-3.19-.16-6.35-.08-9.49.2,2.6-.25,5.21-.39,7.83-.38.47-2.4-1.5-3.29-2.84-4.56-1.43-.55-2.92-.65-4.44-.72-7.44-.35-14.27,1.61-20.67,5.3-5.61,3.44-10.01,7.99-12.97,13.89-.31,1.51.18,3.01.08,4.53-.52,7.72-1.88,15.33-3.27,22.92-.62,3.43-1.3,5.84-2.39,7.69.03,4.91-.17,9.82-.41,14.74,7.97-.54,15.94-.87,23.91-1.02.46-2.95,1.25-5.91.85-8.89-.6-4.52,1.13-7.22,5.37-8.77,3.09-1.13,4.96-3.63,6.07-6.72.78-2.18,1.58-4.35,2.23-6.57,1.57-5.37,3.56-10.59,5.42-15.87.61-1.73,1.24-1.8,2.48-.49,1.26,1.32,1.12,2.88.94,4.5-.69,6.18-1.4,12.36-1.74,18.58-.34,6.21-.69,12.41-1.23,18.61-.16,1.85-.26,3.71-.29,5.56,1.77.02,3.54.04,5.3.07.72-1.68,1.47-3.39,2.29-5.18.33,2.55,1.33,4.21,2.78,5.28,12.04.26,24.08.71,36.13,1.13,1.98-1.95,3.94-3.93,6.02-5.78,3.34-2.97,7.09-5.45,10.24-8.64.07-.16.07-.11.07-.08-.04.05-.08.09-.1.14-.65.6-1.05,1.39-1.5,2.14-2.51,4.08-4.83,8.27-7.1,12.49,10.41.35,20.82.63,31.23.72.29-.48.59-.96.89-1.43,1.45-2.02,1.74-4.24,1.17-6.61-.31-1.28-.07-2.43,1.07-3.18,2.34-1.53,4.55-3.24,6.84-4.83,3.46-2.4,7.3-4.29,10.2-7.45.26-.73-.14-1.23-.64-1.65-.36-.31-.67-.65-.97-1.01.94.91,1.75,2.11,3.37,1.48,3.48-2,3.55-2.12,2.46-4.82,1.08,1.61,1.88,3.22,2.43,4.95,1.03,3.2,1.33,6.53,1.63,9.85.08.85-.25,2,1.14,2.22.26.04.25-.81.43-.3,1.09,3.1,1.37,6.37,1.84,9.6.32,2.19.9,4.36,3.2,5.24,3.21,1.23,5.73,3.4,8.29,5.56,1.6,1.35,3.28,2.6,5.39,2.95,4.37.73,8.09,2.81,11.58,5.41,3.48,2.59,7.45,4.29,11.41,5.97.65.28,1.34.57,2.05.11.43-2.11,1.81-1.57,3.1-1.06,1.27.51,2.33.35,3.26-.66.92-1,1.38-2.12.93-3.51-.57-1.73-1.37-3.24-3.23-3.9-2.34-.82-4.5-2.06-6.81-2.96-6.7-2.61-12.65-6.38-17.57-11.7-1.29-1.4-1.97-2.92-2.29-4.84-1.23-7.33-1.85-14.73-2.99-22.06-.62-3.99-.58-8.98.03-12.33,0,.14-.02.28-.03.42-.23,2.68.1,3.22,2.64,3.9,2.24.6,4.44,1.32,6.63,2.04,3.49,1.15,7.02,2.35,9.96,4.58,4.01,3.03,8.02,6.07,11.91,9.25,1.59,1.3,3.3,1.56,5.37,1.13,4.47-.94,8.15-3.37,11.44-6.22,5.77-4.99,10.26-11.15,14.55-17.42,3.1-4.53,3.74-9.29,1.28-14.49ZM31.6,121.58c1.84-.61,3.68-1.22,5.59-1.62,1.34-.28,2.68-.53,4.02-.77-3.23.6-6.43,1.4-9.6,2.39ZM116.08,167.25c0-.09-.13-.43.2-.18-.07.06-.14.11-.2.18ZM135.06,139.97c-.07.13-.09.12-.1.09.05-.05.11-.11.14-.16.49-.67.96-1.38,1.45-2.08.18-.25.4-.48.62-.71-.71.94-1.44,1.88-2.12,2.86ZM151.42,131.93c-.31.07.31-.26.23.05-.37,1.47-.63,2.87-.79,4.23.11-1.34.3-2.7.6-4.08.03-.14,0-.21-.05-.2ZM155.46,154.28c-1.99-3.14-3.35-6.39-4.07-9.76.74,3,2.07,6.14,4.09,9.79.41.49.68,1.07,1.02,1.6-.37-.53-.71-1.08-1.04-1.63Z"/>
      <path class="cls-36" d="M46.82,118.37c-.18.02-.36.04-.54.06.18-.02.36-.04.54-.06Z"/>
      <path class="cls-36" d="M41.35,119.16c.49-.09.99-.16,1.49-.24-.5.08-.99.15-1.49.24Z"/>
      <path class="cls-36" d="M134.86,140.2s.03-.07.07-.11c0,.02,0,.03,0,.05-.04.23-.04.26-.06.06Z"/>
      <path class="cls-36" d="M150.86,136.26c-.01.11-.02.22-.03.34,0-.11.02-.22.03-.34Z"/>
      <path class="cls-36" d="M14.04,2.39c.86-.94,1.9-1.65,2.92-2.39,1.38.02,2.5.48,3.08,1.84-.17.75.06,1.43.47,2.03,1.93,2.83,3.42,5.92,5.26,8.81,2.5,3.95,6.36,6.15,10.27,8.28,1.63.89,3.38.72,5.05-.12.37-.07.73-.04,1.08.08.65.32,1.29.49,2.06.33,4.45-.91,8.83-2,12.93-4.08,8.17-4.14,16.49-7.96,25.34-10.46,4.53-1.28,9.05-1.83,13.54.17.42.27.75.65.79,1.14.2,2.43-3.82,6.34-6.14,5.73-2.16-.57-4.02-.11-6.03.55-4.11,1.34-8.19,2.67-11.48,5.64-.59.53-1.22,1.03-1.71,1.66-2.13,2.74-2.02,4.62.41,7.13.55.73,1.28,1.23,2.12,1.57,2.46,1.71,5.78,1.68,7.96,3.94.9,1.18,1.93,2.34,2.22,3.81.19.97.8,0,.99.42,1.15,3.7,1.05,7.42-.39,10.97-1.62,3.98-4.02,7.65-4.21,12.13-.03.68-.45,1.15-.98,1.57-2.63,2.07-7.92,1.55-9.67-.96,1.56-5.45,2.81-10.97,3.64-16.58.58-3.91-.13-5.27-3.55-7.28-4-2.35-8.34-2.7-12.75-1.81-3.12.63-6.14,1.74-9.16,2.78-1.5.52-2.66,1.4-3.46,2.78-4.65,8.11-8.78,16.49-12.58,25.03-.86,1.94-.53,3.91,0,5.86-.35,1.03-.3,2.04.22,3.02.51,1.59,1.36,3.04,1.93,4.61,3.72,11.1,10.49,20.44,17.14,29.86.32.45,1.15.79.47,1.56-2.6.2-5.21.03-7.83.31-5.86.63-11.09,2.75-15.99,5.86-4.66,2.64-8.13,6.49-11.17,10.81-.51.72-.87,1.91-2.11.84-1.04-3.02-2.3-5.95-4.01-8.66-1.74-2.75-.9-5.93-1.46-8.88-2.06-10.89-4-21.79-6.2-32.65-.46-2.26-.92-4.52-.83-6.85.53-.97,1.15-1.92,1.36-3.03.95-5.1,3.61-9.3,6.93-13.16,1.61-1.87,3-3.92,4.57-5.82,1.97-1.77,3.47-3.93,4.91-6.12.11-.18.25-.36.38-.52.07-.08.14-.16.21-.24.14-.16.29-.31.45-.46.84-.79,1.7-1.55,2.31-2.55.94-1.77,3-2.87,3.08-5.15.64-.94,1.41-1.64-.51-2.29-2.67-.91-3.31-2.48-2.67-5.28.77-3.31,0-6.13-1.9-8.98-2.27-3.42-5.11-5.94-8.65-7.91-3.17-1.77-3.14-2.26-1.07-5.35.79-1.18,1.9-2.14,2.42-3.5Z"/>
      <path class="cls-9" d="M239.52,108.91c-2.62,2.57-5.87,4.05-9.22,5.37-.95.38-1.93.69-2.91,1.03.29.94.94,1.48,1.59,2.08,1.41,1.29,2.8,2.59,3.97,4.14,1.95,2.6,1.72,5.19.19,7.81-1.56,2.68-3.38,5.17-5.57,7.38-.71,2.46-2.49,3.79-4.81,4.57-.01-.26-.02-.51-.03-.77,2.31-3.5,4.64-6.98,6.91-10.5.64-.99,1.2-2.06,1.7-3.13.76-1.67.49-3.31-.68-4.65-2.15-2.46-4.41-4.81-6.63-7.2-.95-1.02-2.43-1.26-3.38-2.12-.87-.79-1.09-2.23-2.06-3.1-.53-.47-1.24-.75-1.58-1.43-2.47-.84-3.85-3.52-3.21-6.29.22-.94.59-1.81,1.14-2.61.2-.3.42-.59.65-.86.16-.18.35-.31.58-.41.12.02.24.03.35.05.17.16.3.36.36.58.03.16.06.32.04.47-.22,2.03-1.58,4.21-.23,6.05,1.74,2.36,4.38,3.88,6.66,5.73.62.5,1.38.28,2.07.05,4.6-1.52,7.76-4.92,10.88-8.36.62-.68.43-1.5.04-2.25-.94-1.78-1.58-3.66-2.02-5.62-.24-1.05-.88-1.68-1.93-1.88-2.26-.42-4.53-.38-6.85-.32,3.21.92,3.51,3.96,4.62,6.29.56,1.17-.59,2.06-1.8,1.37-1.29-.74-2.81-1.18-3.81-2.39-.06-.23-.03-.45.07-.66.56-.56,1.36-.32,2.05-.58-.97-1.26-2.3-1.95-3.68-2.57-.67-.29-1.34-.66-1.39-1.48-.05-.95.65-1.43,1.39-1.74,1.48-.63,2.88-1.89,4.67-.83.53.56,1.07,1.07,1.93.66,1.28-.06,2.54.07,3.81.21,1.47.17,2.27.85,2.77,2.21,1.54,4.26,3.27,8.44,5.17,12.55.47,1.01.86,2.04,1.5,2.98,3.05,4.46,5.32,9.39,8.31,13.9,1.21,1.82,1.99,3.97,2.68,6.07,1.19,3.65.36,7.02-1.84,10.12-.68.96-1.19,2.06-1.83,3.05-2.94,4.55-6.49,8.58-10.59,12.12-1.2,1.04-2.33,2.17-3.26,3.48-.42.6-.97,1.03-1.6,1.41-2.24,1.37-4.37,2.98-6.73,4.1-1.97.93-4.07,1.77-6.29,2.03-1.43.17-2.68-.51-3.77-1.3-2.96-2.14-6.05-4.18-8.69-6.67-4.15-3.9-8.84-6.68-14.25-8.34-2.35-.72-4.67-1.56-7-2.34-.43.9-.35,1.67-.24,2.46.68,5.01,1.11,10.05,1.54,15.09.4,4.56,1.21,9.08,1.88,13.62.14.97.69,1.78,1.5,2.36,1.76,1.26,3.15,2.91,4.69,4.41,2.84,2.77,6.27,4.62,9.87,6.17,4.02,1.73,8.14,3.23,11.86,5.57,1.13.71,2.69,3.78,2.11,4.67-.8,1.23-1.39,2.73-2.76,3.48-1.11.61-2.28,1.21-3.64.61-.2-.09-.46-.04-1.12-.09,1.06,1.16,1.24,2.55,2.32,3.36.85.64.5,1.22.06,1.83-.62.86-1.49,1.43-2.38,1.98-2.16,1.31-4,3.05-6.93,2.98-2.67-.06-2.68.31-4.06-2-1.46-2.44-3.74-4.08-5.84-5.86-4.29-3.65-9.05-6.69-13.66-9.9-2.99-2.08-6.07-4.04-8.94-6.31-3.65-2.88-6.05-6.59-7.79-10.81-.15-.36-.23-.78-.22-1.17.13-3.59-.54-7.12-.69-10.7-.15-3.57-.81-7.09-1.63-10.57-.05-.22-.11-.47-.55-.56-6.36,5.05-12.87,10.1-19.69,14.73-1.15.78-2.05,1.71-1.39,3.36.55,1.37.23,2.68-.85,3.73-.75.73-.89,1.87-1.75,2.51-.1,0-.2.01-.3.02.34-1.68,1.38-3.34.78-5.07-1.08-3.1.25-4.73,2.78-6.38,3.64-2.38,7.21-4.88,10.82-7.32,1.58-1.06,3.11-2.2,4.67-3.31.14-1.15,1.18-1.11,1.93-1.45.2-.24.36-.54.62-.71,2.14-1.42,2.15-1.41,1.41-3.95-.06-.21,0-.45,0-.88,2.2,1.79,3.03,4.12,3.74,6.51.97,3.27,1.34,6.63,1.46,10.03.02.55-.05,1.12.43,1.55,1.07,1.87.89,4,1.04,6.01.34,4.48,2.31,7.98,5.46,11.07,4.32,4.24,9.66,7.01,14.56,10.41,4.85,3.37,9.65,6.77,14.01,10.76.53.49,1.03,1,1.47,1.57,2.22,2.82,6.7,2.55,8.65-.5.5-.78.39-1.49-.02-2.24-.46-.83-1.11-1.58-.97-2.63-.11-.69-.22-1.39-.34-2.17,1.47-.39,2.7.25,3.93.69.79.28,1.46.62,2.14-.17.73-.85,1.64-1.65,1.23-2.91-.66-2.01-1.63-3.5-3.96-4.31-3.88-1.36-7.49-3.47-11.31-5.03-5.35-2.17-9.13-6.29-13.14-10.14-1.1-1.05-1.56-2.42-1.7-4.05-.31-3.63-.98-7.23-1.47-10.85-.31-2.28-.57-4.56-.87-6.84-.18-1.42-.42-2.83-.56-4.25-.47-4.65-.97-9.31.13-13.94.23-.97.42-2.02,1.14-2.81.78.24.41.75.33,1.17-.16.78-.4,1.54-.51,2.33-.44,3.27-.23,3.49,2.96,4.35,4.62,1.25,9.16,2.72,13.46,4.85,3.17,1.57,5.73,4,8.45,6.18,2.11,1.69,4.43,3.1,6.41,4.98,1.01.95,2.34,1.21,3.97.86,5.02-1.07,9.06-3.78,12.72-7.13,5.02-4.59,8.94-10.13,12.95-15.58,1.54-2.1,2.47-4.47,3.16-6.93.57-2.01-.01-3.95-.76-5.82-1-2.5-2.17-4.91-3.54-7.26-2.23-3.84-4.22-7.81-6.58-11.58-1.43-.8-1.66-2.46-2.64-3.8-2.66,4.3-6.72,6.72-11.09,8.9,3.51-.98,6.63-2.6,9.62-4.5.74-.47,1.47-.99,2.35-1.12.76-.11,1.32.05.79,1.01Z"/>
      <path class="cls-9" d="M27.56,118.04c4.9-3.7,10.39-5.75,16.53-6.35,2.7-.27,5.31-.41,7.97.06.51-.67,1.34-.26,2.01-.58-9.39-8.78-14.72-20.12-20.16-31.38-.69-1.42-1.41-2.83-1.91-4.34-.06-.65-.67-1.25-.21-1.96-1.32-2.71-.98-5.2.28-7.96,2.94-6.44,6.09-12.77,9.35-19.04.98-1.89,2.06-3.74,3.16-5.57.59-.98,1.54-1.61,2.64-1.96,3.42-1.08,6.77-2.53,10.27-3.17,5.71-1.04,11.12-.13,15.59,4.06,1.46,1.37,1.59,3.15,1.33,4.83-.82,5.25-1.92,10.45-3.25,15.6-.16.62-.36,1.23-.9,1.64-.44.19-.03,1.2-.92.95-.67-1.17-.2-2.37.12-3.46,1.45-4.81,2.17-9.75,2.96-14.68.37-2.28-.32-3.91-2.36-5.2-4.35-2.74-9-2.87-13.79-1.88-2.1.43-4.16,1.07-6.22,1.63-2.05.56-3.3,1.75-4.3,3.46-2.48,4.25-4.78,8.6-6.95,13.02-1.98,4.04-3.86,8.14-5.77,12.22-.55,1.18-.76,2.45-.3,3.69.92,2.45,1.83,4.88,3.03,7.24,1.8,3.54,3.62,7.05,5.64,10.47,2.85,4.85,5.52,9.82,8.89,14.34,2.44,3.27,5.69,5.78,8.49,8.71,3.55,3.72,7.05,7.49,9.02,12.36.51,1.25,1.43,2.24,1.9,3.52,1.4,3.79,1.74,7.73,2.06,11.69.27,3.32.69,6.63,1.42,9.88.17.77.27,1.59.29,2.3.1,3.34.99,6.58,1.01,9.91,0,1.09.55,1.99.74,3.22,1.74-1.32,3.45-.25,5.15-.05,1.03.12,1.75.04,2.6-.59,2.86-2.11,5.75-4.2,8.74-6.13,3.71-2.4,7.57-4.57,11.29-6.95,3.07-1.96,6.08-4.04,9.16-5.95,3.51-2.16,7.04-4.31,10.62-6.37,5.36-3.08,10.62-6.35,15.99-9.41,3.72-2.12,7.53-4.06,11.34-6.01,5.37-2.75,10.64-5.69,15.83-8.77,3.76-2.23,7.78-3.03,12.08-2.94,2.96.06,5.25,1.72,7.65,3.08,2.22,1.26,4.14,2.96,6.04,4.66,3.11,2.77,6.71,4.82,10.14,7.12.72.48,1.47.92,2.14,1.48,3.13,2.62,6.68,4.63,9.98,7,1.42,1.02,2.96,1.93,3.91,3.46.36.58.79.71,1.38.7.97-.02,1.83.27,2.52.98-.15,1.17-.84.69-1.44.46-.43.18-.23.67-.47.94.44.96,1.1,1.84,1.38,3.1-1.3-.45-2.1-1.21-2.73-2.17-.61-.22-1.23-.48-1.62-.98-3.65-4.62-9.02-7.05-13.5-10.61-5.48-4.36-11.59-7.85-16.76-12.68-5.25-4.9-11.41-5.52-17.93-2.26-8.13,4.06-15.77,9.01-23.82,13.21-.85.44-1.48,1.21-2.25,1.77-.18.14-.38.22-.6.27-.54-.19-1.07-.22-1.53.21-5.05,3.34-10.3,6.36-15.46,9.51-7.2,4.4-14.43,8.75-21.52,13.34-5.47,3.55-11.03,6.99-16.71,10.21-1.46.83-2.72,1.96-4.27,2.63-.77.32-1.48.76-2.24,1.1-.19.08-.38.14-.57.19-.1.02-.2.04-.29.06-.65,0-.91.92-1.67.71-.12-.59.53-.73.66-1.17.65-1.91-1.33-1.23-1.91-1.94-2.11,1.35-4.26,2.61-7.06,3.07.45-1.7,1.78-2.08,2.81-2.57,1.01-.47,1.22-.86.97-1.97-1.22-5.5-1.73-11.12-2.61-16.68-.71-4.49-.59-9.03-1.22-13.51-.11-.81.5-1.67-.09-2.47-1.57-2.19-2.67-4.65-3.9-7.02-1.2-2.29-2.48-4.39-4.81-5.66-.12-.2-.17-.41-.17-.63-.29-2.44-2.07-3.53-4.1-4.23-.96-.33-1.94-.57-2.82-1.09-2.59-.59-5.22-.69-7.84-.52-4.37.28-8.71.75-12.65,2.96-1.59.89-3.32,1.54-4.99,2.31-.51.2-.58-.04-.48-.47Z"/>
      <path class="cls-9" d="M28.39,33.72c-.21-.71-.87-.52-1.41-.6-2.84-.4-3.94-2.12-3.19-4.84.92-3.34.45-6.44-1.83-9.16-.61-.73-1.3-1.44-1.72-2.28-1.18-2.31-3.18-3.66-5.33-4.87-1.57-.89-3.09-1.83-4.41-3.01.93-1.85,2.13-3.34,3.19-4.92.32-.47.97-.94.34-1.64-2.39,1.11-3.53,3.32-4.82,5.41-.41.67-.46,1.15.18,1.63,1.08.82,1.99,1.84,3.2,2.5,3.39,1.84,6.37,3.99,8.1,7.73.79,1.71,1.37,3.32,1.5,5.14.09,1.19.11,2.39.14,3.59.02.87.33,1.65-.48,2.55-.83.92-.31,1.98.95,2.67.84.46,1.64.95,2.32,1.57-2.79,5.25-7.2,9.07-11.12,13.28-3.89,4.17-7.91,8.23-11.26,12.88-1.23,1.7-2.17,3.6-2.48,5.61-.48,3.13-.26,6.37.23,9.45.71,4.41,1.71,8.79,3,13.11,1.57,5.23,2.26,10.68,3.01,16.1.49,3.52.86,7.04.96,10.61.07,2.32.65,4.61,1.99,6.74,1.59,2.51,3.01,5.21,3.24,8.31.1,1.33.39,2.67.37,4-.05,3.73.69,7.43.27,11.17-.61,5.48-1.86,10.82-3.43,16.09-.12.39-.25.76-.4,1.13.05,1.65.07,3.3.07,4.95.6-.77,1.02-1.72,1.13-2.98.02-.22.22-.43.28-.66.67-2.2,1.31-4.4,1.76-6.67.81-4.13,1.19-8.33,1.98-12.46.91-4.78,1.32-9.54.85-14.37.27-.64-.14-1.05-.5-1.47-.25-2.59-1.23-4.94-2.6-7.08-1.36-2.12-2.49-4.23-2.21-6.85.07-.71.02-1.44-.04-2.15-.42-4.67-1.87-9.14-2.51-13.78-.55-4-1.49-7.95-2.25-11.92-.49-2.56-.85-5.16-1.49-7.69-.68-2.68-.91-5.42-1.32-8.13.58-.74.48-1.65.59-2.51.32-2.54.82-5.03,2.33-7.18,2.91-4.17,5.92-8.25,9.48-11.91,1.61-1.88,3.31-3.67,4.87-5.58.15-.25.22-.55.45-.75.16-.08.31-.19.44-.3.13-.15.24-.32.31-.52.83-.92,1.84-1.68,2.38-2.84.98-1.63,2.7-2.79,3.09-4.8.37-.29.75-.57,1.11-.88.42-.37.88-.78.69-1.41Z"/>
      <path class="cls-15" d="M69.33,61.74c.31-.3.61-.6.92-.9.06.22.07.59.19.63,2.94.99,5.9,2.03,8.86.06.31-.2.69-.29.67-.81-.08-4.26,2.13-7.79,3.99-11.45,1.35-2.65,1.68-7.8.72-10.82-1.11-1.06-1.6-2.53-2.66-3.62-1.16-1.49-2.85-2.04-4.64-2.53-1.13-.31-2.21-.85-3.29-1.35-.81-.37-1.67-.63-2.42-1.12-1.92-1.28-3.05-2.97-2.21-5.21.58-1.54,1.49-2.99,2.98-3.99,1.74-1.16,3.46-2.34,5.23-3.46.45-.29,1-.44,1.53-.6,2.11-.64,4.32-1.08,6.33-1.94,1.65-.71,3.19-.93,4.78-.26,1.77.75,2.89.03,3.86-1.23.7-.91,1.3-1.9,2.03-2.79.52-.64.15-1.12-.14-1.65-2.86-2.65-6.25-2.63-9.83-1.8-5.06,1.17-9.72,3.41-14.66,4.89-6.94,2.08-13.53,5-19.99,8.16-2.59,1.27-5.47,1.62-8.19,2.47-.46.14-.94-.08-1.37-.3-.37,0-.74-.01-1.12-.02-.7.4-1.4.16-2.07-.06-5.62-1.82-10.62-4.49-13.58-9.64-1.03-1.8-3.06-3.19-2.76-5.6.22-.32.46-.58.9-.34,2.88,2.6,5.2,5.69,7.92,8.44,2.07,2.09,4.61,3.57,7.32,4.59,3.99,1.51,8.03.75,11.7-1.13,4.27-2.18,8.62-4.21,12.97-6.23,2.32-1.07,4.8-1.89,7.28-2.58,2.91-.81,5.65-1.99,8.39-3.15,2.63-1.12,5.34-1.94,8.13-2.54,2.88-.62,5.67-.28,8.36.93,1.15.52,1.96,1.34,2.5,2.35.49.93.59,1.74-.19,2.88-1.23,1.8-2.73,3.5-3.35,5.7-.43,1.5-1.07,1.59-2.68,1.16-1.83-.48-3.59-.85-5.5,0-1.49.67-3.18.97-4.8,1.33-3.03.68-5.14,2.79-7.61,4.33-.97.61-1.43,1.54-1.78,2.58-.56,1.68-.32,2.53,1.29,3.27,2.87,1.31,5.76,2.58,8.65,3.84,2.94,1.29,5.38,4.66,4.93,7.18-.2,1.13-.32,2.24-.35,3.37-.05,1.72-.08,3.44-.15,5.15-.07,1.65-.68,3.33-1.45,4.9-1.16,2.38-2.36,4.75-2.63,7.44-.16,1.6-2.32,3.64-4,3.76-3.26.23-6.45,0-9.01-2.32Z"/>
      <path class="cls-24" d="M60.46,143.08c-.35-.2-.26-.46-.1-.72.29.21.23.46.1.72Z"/>
      <polygon class="cls-24" points="60.95 144 60.8 144 60.84 143.86 60.99 143.87 60.95 144"/>
      <path class="cls-11" d="M32.32,180.62c7.2-.14,14.4-.14,21.6-.06,0-1.77.02-3.53.13-5.29.26-3.95.86-7.88.84-11.86,0-.64-.1-1.31.05-1.91.94-3.59.19-7.28.79-10.92.38-2.3.49-4.74.73-7.09.18-1.79.07-3.65.61-5.42.82-2.69-.03-4.8-2.26-6.46-1.16-.87-1.47-.83-1.99.59-1.09,2.99-2.12,6-3.2,9-1.77,4.94-3.07,10.04-4.94,14.95-1.03,2.72-2.65,4.86-5.35,6.1-1.3.6-2.58,1.26-3.85,1.94-1.51.82-2.28,1.99-2.24,3.86.07,3.09.2,6.19-.36,9.29-.19,1.08-.57,2.16-.59,3.29Z"/>
      <path class="cls-11" d="M212.24,204.81c.56.86,1.1,1.74,1.7,2.57.74,1.02.58,1.92-.21,2.79-2.15,2.35-4.8,3.17-7.91,2.58-.55-.1-.73-.55-.94-.98-.74-1.56-1.94-2.7-3.36-3.64-1.47-.97-2.57-2.35-3.93-3.47-4.12-3.39-8.76-6.02-13.04-9.19-2.21-1.64-4.79-2.83-6.94-4.6-3.12-2.57-6.29-5.11-7.9-9.05-.52-1.27-1.04-2.55-1.09-3.87-.1-2.54-.79-5.03-.59-7.59.03-.47.06-.94.11-1.59,1.21.86,1.42,2.14,1.66,3.25.51,2.32.88,4.68,1.12,7.04.28,2.83,1.13,4.98,4.23,5.9,2.63.78,4.57,2.86,6.62,4.6,1.97,1.67,3.96,3.06,6.64,3.48,4.03.63,7.41,2.81,10.65,5.16,4.03,2.92,8.47,5.03,13.17,6.62Z"/>
      <path class="cls-12" d="M142.15,131.43c.68-1.12,1.65-1.89,2.79-2.54,3.45-1.97,6.94-3.88,10.42-5.81,2.91-1.62,5.73-3.35,8.59-5.04,3.92-2.32,8.06-4.15,12.79-4.23,1.83-.03,3.51.32,5.08,1.12,2.34,1.19,4.69,2.44,6.55,4.36,3.59,3.7,8.04,6.25,12.15,9.26,4.05,2.96,8.23,5.74,12.38,8.56,2.25,1.54,3.73,3.91,5.62,5.84-1.43.51-2.46-.4-3.42-1.13-3.67-2.8-7.5-5.45-10.86-8.6-5.28-4.96-11.4-8.68-17.34-12.69-1.12-.76-2.41-1.31-3.4-2.21-2.03-1.84-4.32-1.78-6.86-1.66-4.61.22-8.68,1.97-12.66,3.97-7.19,3.61-14.42,7.15-21.31,11.33-.48.11-.68-.05-.52-.55Z"/>
      <path class="cls-12" d="M82.22,167.41c2.48-2.18,5.42-3.62,8.22-5.31,5.25-3.16,10.39-6.49,15.57-9.75,6.26-3.94,12.64-7.68,18.96-11.51,2.72-1.65,5.49-3.23,8.15-4.97,2.47-1.62,5.03-3.06,7.61-4.5.12.12.17.25.13.38-.03.13-.07.2-.11.2-.17.3-.35.61-.52.91-.54,1.04-.85,2.32-2.38,2.36-2,.81-3.78,2.05-5.57,3.2-7.3,4.7-14.64,9.3-22.25,13.5-3.49,1.93-6.63,4.42-9.75,6.88-3.79,3-8.18,4.89-12.41,7.09-1.61.84-3.37,1.41-5.06,2.1-.53.14-.69-.09-.59-.59Z"/>
      <path class="cls-35" d="M239.52,108.91c-.01-.72-.38-.79-.91-.48-1.38.8-2.77,1.58-4.12,2.42-2.18,1.36-4.58,2.23-6.98,3.1-.71.26-1.37.36-2.21-.38,2.6-1.22,5.03-2.44,7.21-4.09,2.19-1.65,4.14-3.48,5.33-6.43,1,2.03,1.82,3.71,2.65,5.38-.33.16-.65.32-.98.48Z"/>
      <path class="cls-23" d="M60.67,119.35c2.49.91,3.91,2.75,4.91,5.16.78,1.89,1.93,3.64,2.96,5.43.45.78.68,1.6.79,2.47-.15.22-.39.35-.58.16-.34-.33-.7-.68-.9-1.1-2.31-4.83-6.09-8.53-9.59-12.44.93-.81,1.68-.3,2.42.32Z"/>
      <path class="cls-16" d="M58.21,118.42c-1.84.03-3.68.18-5.51.06-4.6-.32-9,.89-13.47,1.61-2.98.48-5.9,1.08-8.7,2.26.99-1.08.99-1.07,2.08-1.47,3.23-1.17,6.58-1.8,9.95-2.38,4.57-.8,9.16-1.09,13.79-.96.68-.31,1.26-.03,1.82.32.11.12.15.25.12.38-.03.13-.06.19-.1.19Z"/>
      <path class="cls-22" d="M155.6,154.48c-1.7-1.44-2.47-3.49-3.27-5.41-1.78-4.3-2.65-8.76-1.64-13.49.37-1.75.12-3.63,1.58-5.67-.57,3.39-.97,6.25-1.05,9.17-.12,4.19,1.29,7.93,2.78,11.7.5,1.25,1.38,2.33,1.6,3.7h0Z"/>
      <path class="cls-37" d="M58.22,118.17c-.62-.21-1.24-.42-1.86-.64-.88-1.3-2.21-2.26-2.83-3.76,3.54-.12,5.91,1.83,7.77,4.53.63.92-.33.45-.64.5-.92.22-1.66-.25-2.43-.64Z"/>
      <path class="cls-38" d="M129.08,149.66c.84,5.12,1.28,9.83,2.42,14.57-2.61-2.97-4.04-10.79-2.42-14.57Z"/>
      <path class="cls-31" d="M15.59,131.48c-.21-.48-.54-.91-.5-1.47,1.59-.41,1.88-2.03,2.75-3.07,2.84-3.42,5.78-6.7,9.73-8.89.16.16.32.31.48.47-2.57,1.88-5.21,3.65-7.3,6.11-1.86,2.18-3.45,4.56-5.15,6.86Z"/>
      <path class="cls-13" d="M222.75,141.29c1.64-1.49,3.46-2.78,4.81-4.57.4.06.93.18.75.66-.88,2.48-2.52,4.3-4.93,5.4-.45.21-1.01.12-1.24-.35-.26-.54.44-.73.61-1.14Z"/>
      <path class="cls-28" d="M137.84,135.23c.79-.79,1.59-1.57,2.38-2.36.33.23.3.55.1.81-1.73,2.18-3.25,4.54-5.34,6.42h0c.17-1.17.99-1.97,1.66-2.84.49-.64.94-1.28,1.22-2.03Z"/>
      <path class="cls-18" d="M134.02,168.39c1.75,1.35,3.21,3.03,5.25,4.21-2.06.67-3.92-.91-5.24-4.21h0Z"/>
      <path class="cls-21" d="M76.52,166.53c1.1-.3,2.15-.22,3.2.27-.11.91-.84,1.18-1.3,1.67-1.05-.24-2.15-.42-1.91-1.94Z"/>
      <path class="cls-22" d="M160.39,157.81c-.64.48-1.29.97-1.93,1.45.06-.94-.67-1.4-1.22-1.95-.8-.8-1.53-1.63-1.64-2.83,0,0,0,0,0,0,1,.47,1.25,1.6,2.02,2.31.82.76,1.64,1.22,2.77,1.03Z"/>
      <path class="cls-30" d="M130.33,146.78c.26-1.4.66-2.69,2.23-3.8-.45,1.73-1.15,2.87-2.23,3.8Z"/>
      <path class="cls-33" d="M82.22,167.41c.2.2.39.39.59.59-1.11.35-2.03,1.44-3.38.92,0,0-.02-.01-.02-.01.1-.2.25-.36.45-.48.92-.05,1.42-1.05,2.36-1.03Z"/>
      <path class="cls-34" d="M58.22,118.17c.84.11,1.7.13,2.43.64,0,.18.01.36.02.54-.82-.01-1.57-.51-2.42-.32-.02-.2-.03-.4-.05-.61,0-.08,0-.17.02-.25Z"/>
      <path class="cls-2" d="M134.98,140.09c-.03.77-.42,1.29-1.29,1.73.06-.98.64-1.38,1.28-1.74,0,0,0,0,0,0Z"/>
      <path class="cls-14" d="M219.86,142.02c-.09-.35-.53-.65-.3-1.01.21-.34.52,0,.78.07.01.4-.04.77-.47.94Z"/>
      <path class="cls-27" d="M142.15,131.43c.17.18.35.37.52.55-.2.35-.53.49-.91.51l-.15-.15c-.02-.14-.04-.29-.04-.43-.02-.08-.04-.17-.06-.25.06-.06.12-.12.18-.18.15-.02.31-.03.46-.04Z"/>
      <path class="cls-3" d="M140.75,131.96c0-.19-.02-.39-.02-.58.37-.52.69-.5.96.09,0,0,.02-.03.02-.03-.16.16-.32.33-.47.5l-.49.02Z"/>
      <path class="cls-27" d="M141.76,132.49c-.11.06-.21.11-.32.17.06-.1.11-.21.17-.32,0,0,.15.15.15.15Z"/>
      <path class="cls-20" d="M141.24,131.94c.05-.27.19-.45.47-.5-.05.16-.09.31-.14.47-.11,0-.22.02-.33.04Z"/>
      <polygon class="cls-11" points="116.28 166.94 116.39 166.74 116.48 166.83 116.28 166.94"/>
      <path class="cls-18" d="M134.03,168.38c-.07-.03-.2-.08-.2-.1.04-.16.11-.12.19.11,0,0,0,0,0,0Z"/>
      <path class="cls-5" d="M34.27,79.66c1.46,1.92,1.89,4.33,3.12,6.39,3.82,6.41,7.13,13.13,11.69,19.08,1.02,1.33,2.22,2.5,3.45,3.63.99.91,1.91,1.87,2.84,3.32-1.34-.14-2.32-.23-3.3-.33-1.95-1.24-2.97-3.28-4.2-5.09-2.59-3.8-4.95-7.76-7.54-11.56-3.02-4.46-4.64-9.52-6.54-14.47-.28-.55-.41-1.01.48-.97Z"/>
      <path class="cls-19" d="M2.67,72.41c.02-.88.06-1.75.06-2.63,0-3.14,1.15-5.87,2.94-8.4,2.53-3.57,5.4-6.86,8.14-10.26.31-.38.67-.68,1.17-.78.54-.13.75.09.65.63-2.29,2.96-4.55,5.95-6.89,8.88-2.13,2.67-3.6,5.62-4.26,8.99-.2,1.01-.59,1.98-.89,2.97-.14.45-.46.61-.91.6Z"/>
      <path class="cls-7" d="M74.11,30.23c2.17.64,4.27,1.45,6.34,2.38.94.43,1.51,1.06,1.89,1.94-.2.24-.43.27-.68.08-1.28-.95-2.6-1.74-4.21-2.08-1.4-.3-2.61-1.11-3.85-1.82-.09-.44,0-.69.51-.49Z"/>
      <path class="cls-29" d="M15.62,50.96c-.22-.21-.43-.42-.65-.63,1.4-2.1,3.23-3.82,4.98-5.61.05-.08.1-.16.15-.24.08.05.16.1.24.15-1,2.54-2.76,4.51-4.72,6.33Z"/>
      <path class="cls-26" d="M23.19,40.76c1.09-1.62,2.11-3.28,3.4-4.75.8.66.3,1.24-.13,1.8-.91,1.17-1.84,2.32-2.75,3.49-.45.09-.7,0-.52-.53Z"/>
      <path class="cls-8" d="M34.27,79.66c-.4.21-.45.58-.48.97-.79-1.52-1.7-3-1.95-4.74-.27-.51.02-.57.43-.52.82,1.36,1.48,2.8,2,4.3Z"/>
      <path class="cls-1" d="M81.66,34.63c.22-.03.45-.05.67-.08,1.1,1.09,1.95,2.33,2.36,3.84-.14.27-.18.99-.64.27-.84-1.32-1.6-2.69-2.39-4.03Z"/>
      <path class="cls-6" d="M23.19,40.76c.17.18.34.36.52.53-.63.97-1.36,1.83-2.4,2.4-.12.16-.24.16-.37.02.75-.98,1.5-1.97,2.25-2.95Z"/>
      <path class="cls-25" d="M32.26,75.36c-.14.17-.29.35-.43.52-.5-.47-.55-1.14-.73-1.73-.16-.51.23-.67.69-.66.16.62.31,1.24.47,1.87Z"/>
      <path class="cls-17" d="M74.11,30.23c-.17.16-.34.33-.51.49-.75-.31-1.54-.57-1.92-1.39.94-.05,1.66.48,2.43.9Z"/>
      <path class="cls-10" d="M20.94,43.71c.13,0,.25,0,.37-.02-.06.27-.23.43-.5.48.04-.15.08-.31.12-.46Z"/>
      <path class="cls-4" d="M20.34,44.18c.17-.01.34-.02.5-.04-.05.29-.19.47-.5.49,0,0,.03.03.03.03-.11-.1-.16-.2-.13-.31.03-.11.06-.17.09-.17Z"/>
      <path class="cls-36" d="M224.66,97.86c1.28.6,2.74.86,3.75,2.01.32.36.83.54,1.26.12.34-.33.23-.75.03-1.1-.79-1.38-1.6-2.73-2.17-4.23-.27-.72-1.02-.98-1.75-1.08-.64-.09-1.26-.19-1.78-.76,1.15-.8,2.21-1.22,3.74-.8,1.73.47,3.63-.04,5.44.52.86.27,1.38.56,1.56,1.5.46,2.43,1.27,4.76,2.48,6.93.46.82.38,1.48-.29,2.14-2.84,2.78-5.37,5.91-9.07,7.68-.43.2-.87.38-1.28.6-1.91.99-3.37.9-5.02-.84-1.26-1.33-2.78-2.56-4.44-3.56-1.79-1.08-1.77-3.06-1.42-4.91.24-1.24.74-2.43.81-3.71.15-.38.39-.79.77-.81,2.47-.14,5-1.36,7.39.32Z"/>
      <path class="cls-32" d="M236.74,98.18c-.99-.61-2.12-2.09-2.94-1.67-4.75,2.4-9.59,1.53-14.4,1.66-1.55.04-2.82,1.32-4.18,2.3,0,0,.04.06.04.06-.8-1.46-.73-2.95-.05-4.47.05-.72.07-1.43.06-2.16.41-.77.85-1.51,1.25-2.28,7.04-2.85,14.05-5.24,20.23,4.29,0,.76-.01,1.51-.02,2.27Z"/>
      <path class="cls-36" d="M216.5,97.41c0,.32.01.64.02.97-.16,0-.31,0-.46.03-.02-.41.06-.77.44-.99Z"/>
      <path class="cls-36" d="M215.55,99.31c.15-.16.3-.31.45-.47-.15.16-.3.31-.45.47Z"/>
      <path class="cls-36" d="M79.86,168.44c-.15.16-.3.32-.45.48.03-.27.18-.43.45-.48Z"/>
      <path class="cls-36" d="M20.34,44.18c.01.16.02.32.03.48-.14.01-.28.03-.42.06,0-.27.14-.45.39-.54Z"/>
      <path class="cls-36" d="M217,96.45c-.16.16-.32.33-.48.49.16-.16.32-.33.48-.49Z"/>
    </g>
  </g>
</svg>